{"glyphs":{"0":{"o":"m 320 -756 l 320 -756 q 377 -756 420 -732 q 463 -709 495 -670 q 526 -631 547 -581 q 568 -531 581 -477 q 593 -424 598 -372 q 603 -320 603 -276 l 603 -276 q 603 -127 530 -47 q 457 32 305 32 l 305 32 q 157 32 88 -43 q 18 -118 18 -263 l 18 -263 q 18 -309 24 -363 q 30 -418 44 -472 q 58 -527 81 -578 q 104 -630 138 -669 q 171 -709 216 -732 q 261 -756 320 -756 m 183 -494 l 183 -494 q 183 -461 193 -432 q 203 -404 220 -382 q 237 -361 260 -348 q 283 -336 309 -336 l 309 -336 q 337 -336 363 -350 q 388 -364 408 -387 q 427 -410 439 -440 q 451 -470 451 -503 l 451 -503 q 451 -534 440 -561 q 429 -589 411 -610 q 392 -631 368 -643 q 343 -655 316 -655 l 316 -655 q 288 -655 264 -642 q 240 -630 222 -608 q 204 -586 194 -556 q 183 -527 183 -494","ha":625,"x_min":18,"x_max":603},"1":{"o":"m 511 -609 l 511 -609 q 511 -580 509 -549 q 506 -518 501 -485 l 501 -485 l 493 -420 q 488 -387 486 -355 q 483 -324 483 -296 l 483 -296 q 483 -281 485 -260 q 487 -239 493 -219 q 499 -200 511 -186 q 523 -172 544 -172 l 544 -172 q 566 -172 586 -181 q 605 -190 626 -190 l 626 -190 q 643 -190 654 -181 q 665 -172 672 -159 q 678 -146 681 -130 q 683 -115 683 -102 l 683 -102 q 683 -66 667 -41 q 651 -16 625 0 q 599 16 566 25 q 533 34 499 38 q 464 42 431 43 q 398 44 373 44 l 373 44 q 352 44 319 43 q 285 42 247 38 q 209 34 171 26 q 132 18 101 4 q 70 -10 51 -31 q 31 -52 31 -82 l 31 -82 q 31 -128 57 -159 q 82 -190 130 -190 l 130 -190 q 155 -190 179 -183 q 202 -176 226 -176 l 226 -176 q 263 -176 288 -200 q 313 -224 329 -262 q 344 -300 352 -347 q 359 -394 362 -440 q 365 -487 365 -528 q 365 -569 365 -594 l 365 -594 q 365 -605 365 -627 q 364 -649 360 -670 q 356 -692 347 -708 q 337 -724 320 -724 l 320 -724 q 292 -724 272 -712 q 252 -700 239 -680 q 226 -661 220 -637 q 213 -613 213 -588 l 213 -588 q 213 -566 209 -546 q 204 -526 194 -511 q 183 -496 166 -487 q 148 -478 123 -478 l 123 -478 q 83 -478 54 -501 q 25 -525 25 -567 l 25 -567 q 25 -614 56 -651 q 87 -689 132 -715 q 177 -742 228 -756 q 279 -770 318 -770 l 318 -770 q 364 -770 400 -762 q 436 -754 461 -735 q 485 -717 498 -686 q 511 -655 511 -609","ha":702,"x_min":25,"x_max":683},"2":{"o":"m 364 -756 l 364 -756 q 421 -756 468 -745 q 514 -734 547 -713 q 580 -693 598 -664 q 616 -635 616 -600 l 616 -600 q 616 -557 592 -519 q 567 -482 531 -449 q 495 -417 452 -388 q 409 -359 373 -332 q 337 -305 313 -279 q 288 -254 288 -228 l 288 -228 q 288 -212 298 -197 q 308 -182 325 -171 q 341 -160 363 -153 q 385 -146 408 -146 l 408 -146 q 434 -146 459 -154 q 483 -163 502 -176 q 520 -190 532 -208 q 543 -226 543 -245 l 543 -245 q 543 -271 564 -287 q 584 -304 617 -304 l 617 -304 q 644 -304 666 -292 q 688 -280 705 -258 q 721 -237 730 -207 q 739 -178 739 -143 l 739 -143 q 740 -49 674 -3 q 607 42 468 42 l 468 42 q 432 42 388 44 q 343 46 295 46 l 295 46 q 246 46 198 42 q 150 37 113 24 q 75 10 51 -15 q 27 -41 25 -82 l 25 -82 l 24 -88 q 24 -139 55 -183 q 86 -227 132 -267 q 178 -307 233 -343 q 287 -379 333 -412 q 379 -446 410 -478 q 441 -510 441 -541 l 441 -541 q 441 -571 414 -591 q 387 -612 347 -612 l 347 -612 q 307 -612 279 -592 q 250 -573 225 -549 q 199 -526 171 -506 q 143 -487 103 -487 l 103 -487 q 63 -487 39 -508 q 14 -530 14 -565 l 14 -565 q 14 -603 43 -637 q 71 -672 120 -698 q 168 -725 232 -740 q 295 -756 364 -756","ha":747,"x_min":14,"x_max":740},"3":{"o":"m 302 -766 l 302 -766 q 351 -766 393 -756 q 434 -746 464 -728 q 494 -710 511 -685 q 527 -660 527 -630 l 527 -630 q 527 -601 512 -579 q 497 -557 474 -540 q 451 -524 425 -512 q 398 -501 375 -493 q 352 -486 337 -481 q 322 -476 322 -473 l 322 -473 q 322 -469 342 -465 q 362 -461 393 -452 q 423 -443 458 -427 q 493 -412 524 -386 q 554 -360 574 -321 q 594 -282 594 -227 l 594 -227 q 594 -173 574 -129 q 553 -85 515 -54 q 477 -24 424 -7 q 371 10 305 10 l 305 10 q 241 10 188 -5 q 135 -21 97 -49 q 58 -78 37 -117 q 15 -156 15 -202 l 15 -202 q 15 -236 26 -265 q 37 -294 57 -315 q 76 -337 103 -349 q 130 -361 161 -361 l 161 -361 q 202 -361 220 -337 q 238 -314 238 -261 l 238 -261 q 238 -169 291 -169 l 291 -169 q 309 -169 326 -178 q 342 -187 354 -202 q 366 -217 374 -236 q 381 -256 381 -277 l 381 -277 q 381 -305 370 -324 q 358 -344 341 -358 q 323 -373 303 -384 q 283 -396 266 -408 q 248 -420 237 -433 q 225 -446 225 -464 l 225 -464 q 225 -482 237 -497 q 248 -512 266 -525 q 283 -538 303 -550 q 323 -562 341 -575 q 358 -588 370 -602 q 381 -616 381 -633 l 381 -633 q 381 -659 356 -676 q 330 -694 292 -694 l 292 -694 q 268 -694 247 -686 q 226 -679 210 -665 q 194 -652 185 -634 q 176 -616 176 -595 l 176 -595 q 176 -560 151 -536 q 125 -513 87 -513 l 87 -513 q 53 -513 33 -533 q 12 -553 12 -588 l 12 -588 q 12 -624 36 -656 q 59 -689 99 -713 q 138 -737 191 -751 q 244 -766 302 -766","ha":606,"x_min":12,"x_max":594},"4":{"o":"m 602 -424 l 602 -424 q 611 -424 619 -433 q 626 -442 635 -452 q 644 -463 656 -472 q 667 -481 683 -481 l 683 -481 q 699 -481 710 -472 q 720 -463 726 -450 q 732 -437 734 -422 q 736 -407 736 -395 l 736 -395 q 736 -380 733 -361 q 729 -342 722 -325 q 714 -309 701 -298 q 688 -287 668 -287 l 668 -287 q 655 -287 643 -292 q 631 -297 621 -303 q 610 -310 602 -315 q 593 -320 586 -320 l 586 -320 q 579 -320 573 -315 q 567 -311 563 -304 q 558 -297 556 -290 q 553 -283 553 -277 l 553 -277 q 553 -262 565 -242 q 576 -222 591 -199 q 605 -176 617 -151 q 628 -126 628 -100 l 628 -100 q 628 -67 610 -43 q 591 -20 564 -5 q 536 10 504 17 q 472 24 445 24 l 445 24 q 426 24 399 20 q 371 15 346 4 q 321 -7 304 -25 q 286 -43 286 -69 l 286 -69 q 286 -98 311 -129 q 335 -160 365 -189 q 394 -219 419 -245 q 443 -272 443 -292 l 443 -292 q 443 -303 437 -309 q 430 -316 421 -320 q 411 -324 401 -325 q 390 -327 382 -327 l 382 -327 q 355 -327 324 -313 q 292 -300 259 -284 q 225 -268 191 -254 q 156 -241 123 -241 l 123 -241 q 95 -241 74 -253 q 53 -266 40 -285 q 26 -305 20 -329 q 13 -354 13 -379 l 13 -379 q 13 -425 30 -472 q 46 -520 75 -565 q 104 -610 143 -649 q 181 -689 225 -718 q 269 -748 317 -765 q 364 -782 410 -782 l 410 -782 q 495 -782 531 -739 q 567 -696 567 -614 l 567 -614 q 567 -592 566 -571 q 564 -550 564 -529 l 564 -529 q 564 -522 566 -504 q 567 -487 571 -469 q 575 -451 583 -437 q 590 -424 602 -424 m 222 -423 l 222 -423 q 222 -412 232 -406 q 242 -400 256 -397 q 269 -394 283 -393 q 297 -392 304 -392 l 304 -392 q 336 -392 357 -399 q 378 -406 390 -424 q 402 -443 407 -475 q 412 -507 412 -556 l 412 -556 q 412 -563 412 -587 q 411 -611 409 -637 q 406 -664 401 -684 q 396 -705 387 -705 l 387 -705 q 377 -705 361 -687 q 344 -670 326 -642 q 307 -615 289 -581 q 270 -548 256 -517 q 241 -486 232 -460 q 222 -435 222 -423","ha":752,"x_min":13,"x_max":736},"5":{"o":"m 632 -674 l 632 -674 q 632 -637 604 -615 q 576 -593 528 -594 l 528 -594 q 492 -594 456 -605 q 420 -617 387 -630 q 354 -644 325 -655 q 295 -667 273 -667 l 273 -667 q 259 -667 246 -662 q 232 -657 221 -649 q 210 -641 203 -631 q 196 -621 196 -611 l 196 -611 q 196 -590 226 -576 q 255 -562 300 -562 l 300 -562 q 335 -562 363 -569 q 390 -576 424 -576 l 424 -576 q 474 -576 517 -555 q 560 -535 592 -498 q 624 -462 642 -413 q 660 -364 660 -307 l 660 -307 q 660 -236 632 -176 q 603 -116 552 -72 q 501 -29 431 -5 q 361 19 277 19 l 277 19 q 32 19 32 -203 l 32 -203 q 32 -282 61 -327 q 89 -372 140 -372 l 140 -372 q 173 -372 196 -354 q 218 -336 218 -310 l 218 -310 q 218 -297 224 -290 q 230 -283 239 -281 q 247 -279 256 -279 q 265 -279 272 -279 l 272 -279 q 296 -279 320 -290 q 344 -301 363 -319 q 382 -338 394 -362 q 406 -386 406 -411 l 406 -411 q 406 -432 398 -451 q 390 -470 377 -484 q 364 -499 349 -508 q 334 -517 319 -517 l 319 -517 q 300 -517 283 -501 q 266 -486 247 -468 q 227 -450 203 -434 q 179 -419 145 -419 l 145 -419 q 116 -419 92 -432 q 68 -445 51 -468 q 34 -491 25 -523 q 15 -556 15 -596 l 15 -596 q 15 -649 34 -686 q 53 -724 94 -747 q 135 -771 201 -782 q 267 -793 361 -793 l 361 -793 q 370 -793 394 -792 q 417 -792 447 -788 q 477 -785 510 -778 q 542 -771 570 -757 q 597 -744 615 -723 q 632 -703 632 -674","ha":684,"x_min":15,"x_max":660},"6":{"o":"m 584 -631 l 584 -631 q 584 -602 565 -583 q 546 -564 519 -564 l 519 -564 q 491 -564 466 -583 q 441 -603 418 -626 q 395 -649 373 -668 q 350 -688 326 -688 l 326 -688 q 307 -688 286 -675 q 265 -662 249 -641 q 232 -621 221 -596 q 210 -572 210 -549 l 210 -549 q 210 -506 247 -506 l 247 -506 q 259 -506 274 -510 q 288 -514 306 -519 q 324 -524 347 -528 q 370 -532 398 -532 l 398 -532 q 498 -532 552 -475 q 605 -418 605 -312 l 605 -312 q 605 -242 583 -182 q 561 -122 522 -78 q 483 -34 430 -8 q 377 17 315 17 l 315 17 q 249 17 194 -12 q 138 -42 98 -93 q 57 -145 34 -216 q 11 -288 11 -372 l 11 -372 q 11 -459 36 -528 q 61 -597 107 -645 q 153 -694 219 -720 q 285 -746 367 -746 l 367 -746 q 415 -746 455 -737 q 494 -729 523 -713 q 552 -698 568 -677 q 584 -656 584 -631 m 231 -344 l 231 -344 q 231 -322 239 -300 q 246 -279 258 -261 q 270 -244 285 -233 q 300 -223 315 -223 l 315 -223 q 333 -223 352 -237 q 371 -252 387 -275 q 402 -298 412 -326 q 421 -355 421 -383 l 421 -383 q 421 -425 400 -450 q 379 -475 345 -475 l 345 -475 q 323 -475 303 -464 q 282 -453 266 -435 q 250 -417 241 -393 q 231 -370 231 -344","ha":620,"x_min":11,"x_max":605},"7":{"o":"m 282 -785 l 282 -785 q 434 -785 506 -709 q 578 -633 578 -472 l 578 -472 q 578 -367 550 -273 q 522 -180 475 -109 q 428 -39 365 3 q 302 44 231 44 l 231 44 q 195 44 164 33 q 133 22 110 3 q 87 -16 74 -42 q 61 -68 61 -98 l 61 -98 q 61 -142 87 -182 q 113 -223 153 -262 q 192 -301 238 -338 q 284 -376 324 -413 q 363 -450 389 -488 q 415 -526 415 -565 l 415 -565 q 415 -587 407 -607 q 398 -627 383 -642 q 368 -658 349 -667 q 329 -676 308 -676 l 308 -676 q 277 -676 255 -659 q 232 -642 211 -622 q 189 -602 166 -585 q 142 -568 109 -568 l 109 -568 q 90 -568 73 -574 q 55 -581 42 -592 q 29 -604 22 -619 q 14 -635 14 -653 l 14 -653 q 14 -681 35 -705 q 55 -729 91 -747 q 127 -765 176 -775 q 225 -785 282 -785","ha":596,"x_min":14,"x_max":578},"8":{"o":"m 646 -632 l 646 -632 q 646 -604 633 -581 q 619 -559 603 -541 q 587 -524 574 -511 q 560 -498 560 -488 l 560 -488 q 560 -480 572 -476 q 583 -472 600 -467 q 617 -462 637 -453 q 656 -444 673 -425 q 690 -407 702 -375 q 713 -343 713 -293 l 713 -293 q 713 -220 688 -160 q 662 -101 616 -58 q 569 -15 504 9 q 439 32 361 32 l 361 32 q 287 32 226 13 q 165 -6 122 -37 q 78 -69 54 -109 q 30 -150 30 -194 l 30 -194 q 30 -248 50 -286 q 70 -324 100 -350 q 129 -377 164 -394 q 198 -412 228 -423 q 257 -435 277 -443 q 297 -451 297 -460 l 297 -460 q 297 -467 284 -475 q 270 -483 249 -493 q 228 -504 205 -516 q 181 -529 160 -545 q 139 -561 126 -581 q 112 -601 112 -625 l 112 -625 q 112 -663 132 -694 q 151 -725 186 -747 q 221 -770 270 -782 q 318 -795 376 -795 l 376 -795 q 510 -795 578 -754 q 646 -713 646 -632 m 372 -711 l 372 -711 q 355 -711 338 -705 q 321 -699 308 -688 q 294 -678 286 -665 q 277 -652 277 -637 l 277 -637 q 277 -626 285 -615 q 292 -604 305 -595 q 318 -586 334 -580 q 350 -574 367 -574 l 367 -574 q 383 -574 398 -580 q 413 -586 425 -596 q 436 -606 443 -618 q 450 -631 450 -643 l 450 -643 q 450 -674 429 -692 q 407 -711 372 -711 m 394 -372 l 394 -372 q 344 -372 316 -350 q 287 -329 287 -291 l 287 -291 q 287 -231 364 -231 l 364 -231 q 413 -231 444 -254 q 475 -277 475 -315 l 475 -315 q 475 -372 394 -372","ha":742,"x_min":30,"x_max":713},"9":{"o":"m 556 -423 l 556 -423 q 556 -317 534 -232 q 512 -148 471 -88 q 430 -29 372 3 q 313 34 239 34 l 239 34 q 192 34 152 21 q 112 8 83 -14 q 54 -37 38 -69 q 21 -101 21 -138 l 21 -138 q 21 -168 32 -195 q 42 -223 60 -243 q 78 -264 102 -276 q 126 -288 153 -288 l 153 -288 q 184 -288 202 -273 q 219 -259 232 -241 q 244 -224 256 -209 q 268 -195 288 -195 l 288 -195 q 311 -195 334 -214 q 356 -234 375 -265 q 393 -297 405 -335 q 416 -374 416 -412 l 416 -412 q 416 -415 416 -424 q 415 -433 413 -442 q 410 -452 405 -459 q 399 -467 389 -467 l 389 -467 q 375 -467 353 -453 q 330 -440 302 -423 q 273 -407 241 -393 q 208 -380 175 -380 l 175 -380 q 142 -380 114 -394 q 86 -409 66 -434 q 45 -459 33 -493 q 21 -527 21 -566 l 21 -566 q 21 -616 41 -657 q 60 -698 95 -727 q 129 -757 178 -773 q 227 -790 285 -790 l 285 -790 q 556 -790 556 -423 m 272 -562 l 272 -562 q 307 -562 330 -586 q 353 -610 353 -645 l 353 -645 q 353 -677 335 -700 q 317 -723 293 -723 l 293 -723 q 278 -723 262 -713 q 245 -704 232 -689 q 218 -675 210 -657 q 201 -640 201 -623 l 201 -623 q 201 -597 222 -579 q 242 -562 272 -562","ha":577,"x_min":21,"x_max":556}," ":{"o":"","ha":400,"x_min":0,"x_max":0},"A":{"o":"m 1 6 l 1 6 q 1 -38 23 -75 q 45 -112 78 -147 q 111 -182 149 -216 q 187 -250 220 -287 q 253 -324 275 -366 q 297 -408 297 -458 l 297 -458 q 297 -488 290 -511 q 282 -534 273 -553 q 264 -573 257 -590 q 249 -608 249 -629 l 249 -629 q 249 -659 267 -686 q 284 -713 314 -734 q 343 -755 382 -767 q 421 -779 463 -779 l 463 -779 q 500 -779 532 -769 q 563 -760 587 -743 q 610 -726 623 -702 q 636 -679 636 -652 l 636 -652 q 636 -639 633 -621 q 630 -604 627 -585 q 623 -566 620 -546 q 617 -527 617 -509 l 617 -509 q 617 -460 641 -425 q 664 -391 700 -363 q 735 -335 776 -309 q 817 -283 853 -251 q 888 -220 912 -178 q 935 -137 935 -78 l 935 -78 q 935 7 885 56 q 834 105 747 105 l 747 105 q 600 105 600 -43 l 600 -43 q 600 -83 590 -118 q 580 -154 563 -180 q 545 -207 522 -222 q 499 -238 473 -238 l 473 -238 q 446 -238 430 -221 q 414 -204 404 -176 q 394 -148 388 -112 q 381 -76 373 -39 q 365 -2 354 34 q 342 70 321 98 q 300 126 267 143 q 234 160 185 160 l 185 160 q 145 160 111 149 q 77 137 53 117 q 28 96 15 68 q 1 39 1 6 m 395 -412 l 395 -412 q 395 -385 417 -367 q 438 -349 470 -349 l 470 -349 q 500 -349 518 -367 q 535 -385 535 -417 l 535 -417 q 535 -433 529 -461 q 522 -490 512 -518 q 501 -546 488 -567 q 475 -588 462 -588 l 462 -588 q 447 -588 435 -566 q 422 -544 414 -514 q 405 -485 400 -456 q 395 -427 395 -412","ha":933,"x_min":1,"x_max":935},"B":{"o":"m 269 -788 l 269 -788 q 344 -788 405 -774 q 465 -761 508 -736 q 550 -711 573 -675 q 596 -640 596 -596 l 596 -596 q 596 -555 578 -525 q 559 -496 532 -475 q 505 -454 473 -439 q 440 -425 413 -414 q 386 -404 368 -396 q 349 -389 349 -380 l 349 -380 q 349 -370 374 -362 q 399 -355 437 -345 q 475 -336 519 -321 q 563 -306 601 -280 q 639 -255 664 -217 q 689 -179 689 -122 l 689 -122 q 689 -54 652 0 q 614 54 553 92 q 491 129 411 149 q 331 169 246 169 l 246 169 q 198 169 158 159 q 117 148 88 130 q 58 112 41 88 q 24 63 23 34 l 23 34 l 23 31 q 23 -5 45 -44 q 67 -83 93 -123 q 119 -163 141 -203 q 163 -244 163 -284 l 163 -284 q 163 -324 142 -363 q 120 -403 95 -445 q 69 -487 48 -533 q 26 -579 26 -632 l 26 -632 q 26 -712 86 -750 q 145 -788 269 -788 m 319 -451 l 319 -451 q 333 -451 346 -457 q 358 -464 368 -475 q 378 -486 384 -500 q 390 -514 390 -529 l 390 -529 q 390 -547 382 -567 q 373 -587 360 -604 q 347 -622 332 -633 q 317 -645 304 -645 l 304 -645 q 292 -645 280 -636 q 267 -627 257 -612 q 246 -598 240 -581 q 233 -564 233 -547 l 233 -547 q 233 -530 241 -512 q 248 -495 261 -481 q 273 -468 289 -459 q 304 -451 319 -451 m 311 -60 l 311 -60 q 329 -60 350 -72 q 371 -84 388 -102 q 405 -120 417 -141 q 428 -163 428 -182 l 428 -182 q 428 -200 418 -218 q 408 -236 393 -251 q 377 -266 358 -275 q 339 -285 321 -285 l 321 -285 q 292 -285 279 -257 q 265 -229 265 -166 l 265 -166 q 265 -109 276 -84 q 286 -60 311 -60","ha":720,"x_min":23,"x_max":689},"C":{"o":"m 33 -286 l 33 -286 q 33 -403 57 -499 q 81 -595 126 -663 q 170 -732 232 -770 q 293 -808 368 -808 l 368 -808 q 419 -808 467 -790 q 514 -773 551 -744 q 587 -716 609 -678 q 631 -641 631 -600 l 631 -600 q 631 -571 620 -545 q 609 -520 590 -501 q 570 -483 544 -472 q 517 -461 487 -461 l 487 -461 q 442 -461 415 -484 q 387 -507 387 -544 l 387 -544 q 387 -562 393 -586 q 398 -610 398 -632 q 398 -654 388 -669 q 378 -684 348 -684 l 348 -684 q 313 -684 281 -662 q 249 -641 225 -604 q 201 -567 187 -519 q 173 -471 173 -417 l 173 -417 q 173 -362 189 -314 q 204 -267 231 -232 q 258 -197 295 -177 q 332 -158 375 -158 l 375 -158 q 441 -158 479 -203 q 517 -248 517 -328 l 517 -328 q 517 -385 538 -411 q 559 -437 605 -437 l 605 -437 q 653 -437 673 -404 q 693 -371 693 -292 l 693 -292 q 693 -196 667 -116 q 641 -37 594 20 q 547 77 482 109 q 416 140 336 140 l 336 140 q 187 140 110 32 q 33 -77 33 -286","ha":707,"x_min":33,"x_max":693},"D":{"o":"m 231 -799 l 231 -799 q 286 -799 341 -779 q 395 -759 446 -723 q 496 -688 540 -640 q 584 -593 617 -538 q 649 -483 668 -423 q 686 -363 686 -304 l 686 -304 q 686 -245 668 -187 q 649 -129 617 -76 q 585 -23 541 22 q 496 67 445 100 q 393 133 336 152 q 279 171 221 171 l 221 171 q 136 171 89 132 q 42 92 42 20 l 42 20 q 42 -21 56 -64 q 70 -108 88 -151 q 105 -194 119 -235 q 133 -277 133 -315 l 133 -315 q 133 -350 122 -384 q 110 -419 96 -456 q 81 -493 70 -533 q 58 -574 58 -620 l 58 -620 q 58 -705 103 -752 q 148 -799 231 -799 m 307 -642 l 307 -642 q 272 -642 258 -582 q 243 -522 243 -401 l 243 -401 q 243 -270 258 -206 q 272 -143 312 -143 l 312 -143 q 333 -143 355 -162 q 376 -182 393 -214 q 410 -247 421 -290 q 431 -333 431 -380 l 431 -380 q 431 -425 420 -472 q 408 -519 390 -556 q 372 -594 350 -618 q 328 -642 307 -642","ha":700,"x_min":42,"x_max":686},"E":{"o":"m 317 -806 l 317 -806 q 388 -806 449 -798 q 509 -790 554 -772 q 598 -754 623 -724 q 648 -695 648 -651 l 648 -651 q 648 -602 634 -573 q 620 -544 602 -528 q 583 -513 565 -508 q 546 -504 538 -504 l 538 -504 q 498 -504 476 -515 q 454 -526 444 -543 q 434 -560 432 -579 q 430 -599 430 -616 l 430 -616 q 430 -635 428 -649 q 425 -664 416 -674 q 407 -684 391 -689 q 375 -694 348 -694 l 348 -694 q 326 -694 307 -684 q 287 -674 272 -656 q 257 -639 249 -616 q 240 -593 240 -566 l 240 -566 q 240 -542 249 -522 q 258 -502 273 -487 q 288 -473 308 -465 q 327 -457 348 -457 l 348 -457 q 362 -457 388 -459 q 413 -462 442 -462 l 442 -462 q 465 -462 488 -459 q 510 -456 528 -447 q 546 -439 557 -423 q 568 -408 568 -383 l 568 -383 q 568 -362 560 -349 q 552 -337 539 -330 q 526 -323 509 -320 q 492 -318 474 -318 l 474 -318 q 454 -318 434 -319 q 414 -321 399 -321 l 399 -321 q 375 -321 347 -314 q 319 -307 296 -293 q 272 -280 256 -261 q 240 -242 240 -218 l 240 -218 q 240 -187 250 -163 q 259 -139 275 -122 q 291 -106 313 -98 q 334 -90 357 -90 l 357 -90 q 388 -90 411 -101 q 434 -112 453 -128 q 471 -144 487 -163 q 502 -182 518 -198 q 533 -214 551 -225 q 569 -236 593 -236 l 593 -236 q 638 -236 663 -198 q 687 -161 687 -93 l 687 -93 q 687 38 591 107 q 495 175 310 175 l 310 175 q 160 175 81 130 q 2 85 0 -2 l 0 -2 l 0 -6 q 0 -60 25 -103 q 50 -146 81 -185 q 112 -225 138 -266 q 163 -308 163 -359 l 163 -359 q 163 -404 143 -439 q 123 -474 99 -506 q 75 -539 55 -573 q 35 -607 35 -650 l 35 -650 q 35 -727 107 -766 q 178 -806 317 -806","ha":696,"x_min":0,"x_max":687},"F":{"o":"m 40 -658 l 40 -658 q 40 -747 102 -787 q 164 -828 292 -828 l 292 -828 q 354 -828 404 -817 q 453 -806 488 -786 q 523 -767 542 -740 q 561 -714 561 -683 l 561 -683 q 561 -625 533 -591 q 504 -558 462 -558 l 462 -558 q 417 -558 388 -585 q 359 -613 359 -657 l 359 -657 q 359 -674 354 -692 q 349 -710 340 -724 q 330 -739 317 -748 q 304 -758 287 -758 l 287 -758 q 266 -758 249 -746 q 232 -734 220 -715 q 207 -697 200 -675 q 193 -653 193 -634 l 193 -634 q 193 -599 203 -569 q 213 -539 230 -517 q 246 -495 267 -482 q 287 -470 308 -470 l 308 -470 q 331 -470 348 -481 q 365 -492 380 -505 q 395 -518 409 -529 q 422 -540 437 -540 l 437 -540 q 482 -540 503 -521 q 524 -502 524 -472 l 524 -472 q 524 -453 518 -431 q 512 -409 501 -390 q 489 -371 473 -358 q 457 -345 437 -345 l 437 -345 q 426 -345 407 -351 q 388 -357 366 -364 q 344 -371 322 -377 q 300 -384 282 -385 q 264 -387 253 -381 q 241 -375 241 -357 l 241 -357 q 241 -323 256 -291 q 271 -260 289 -226 q 306 -192 321 -152 q 336 -112 336 -61 l 336 -61 q 336 -21 327 20 q 317 61 298 93 q 278 125 249 146 q 219 166 178 166 l 178 166 q 97 166 52 121 q 6 76 6 -2 l 6 -2 q 6 -39 16 -72 q 26 -106 41 -137 q 55 -169 73 -198 q 90 -228 105 -257 q 119 -287 129 -316 q 139 -346 139 -376 l 139 -376 q 139 -411 124 -446 q 108 -482 90 -518 q 71 -554 56 -589 q 40 -624 40 -658","ha":566,"x_min":6,"x_max":561},"G":{"o":"m 23 -318 l 23 -318 q 23 -432 48 -522 q 73 -612 120 -674 q 167 -736 235 -769 q 303 -802 390 -802 l 390 -802 q 441 -802 485 -791 q 528 -780 560 -761 q 592 -742 611 -715 q 629 -689 629 -659 l 629 -659 q 629 -638 620 -619 q 610 -600 594 -585 q 578 -571 557 -563 q 535 -555 510 -555 l 510 -555 q 476 -555 451 -569 q 425 -583 403 -600 q 380 -617 358 -631 q 336 -645 309 -645 l 309 -645 q 275 -645 243 -620 q 211 -596 186 -555 q 161 -515 146 -463 q 131 -411 131 -355 l 131 -355 q 131 -300 146 -254 q 161 -208 188 -175 q 215 -142 252 -123 q 289 -105 333 -105 l 333 -105 q 378 -105 423 -124 q 467 -143 502 -173 q 537 -204 559 -242 q 580 -281 580 -320 l 580 -320 q 580 -340 575 -358 q 569 -376 560 -389 q 551 -403 539 -411 q 527 -419 514 -419 l 514 -419 q 500 -419 488 -409 q 475 -400 464 -385 q 453 -371 441 -354 q 429 -337 416 -322 q 402 -308 385 -298 q 368 -289 347 -289 l 347 -289 q 312 -289 289 -315 q 266 -341 266 -383 l 266 -383 q 266 -446 320 -482 q 373 -518 466 -518 l 466 -518 q 534 -518 589 -497 q 643 -477 682 -439 q 720 -401 741 -347 q 762 -294 762 -227 l 762 -227 q 762 -145 732 -72 q 701 0 649 54 q 596 108 526 140 q 455 171 375 171 l 375 171 q 294 171 229 137 q 163 103 118 40 q 72 -24 48 -114 q 23 -205 23 -318","ha":773,"x_min":23,"x_max":762},"H":{"o":"m 456 -218 l 456 -218 q 456 -235 448 -251 q 439 -267 425 -279 q 410 -292 390 -300 q 370 -308 346 -308 l 346 -308 q 328 -308 308 -306 q 287 -305 270 -300 q 252 -295 241 -284 q 229 -274 229 -256 l 229 -256 q 229 -231 251 -200 q 272 -169 298 -137 q 323 -105 345 -74 q 366 -44 366 -18 l 366 -18 q 366 24 358 61 q 350 97 331 124 q 312 150 280 166 q 248 181 201 181 l 201 181 q 154 181 119 164 q 84 146 61 116 q 37 86 25 47 q 13 8 12 -35 l 12 -35 l 12 -43 q 12 -79 25 -114 q 37 -149 52 -185 q 67 -222 80 -260 q 92 -299 92 -341 l 92 -341 q 92 -380 82 -416 q 72 -453 60 -489 q 48 -526 38 -562 q 28 -599 28 -638 l 28 -638 q 28 -715 60 -747 q 91 -779 139 -779 l 139 -779 q 186 -779 205 -757 q 223 -736 226 -705 q 229 -674 224 -639 q 219 -604 219 -578 l 219 -578 q 219 -553 224 -520 q 228 -488 241 -459 q 253 -431 277 -411 q 300 -392 339 -392 l 339 -392 q 356 -392 373 -399 q 389 -406 402 -420 q 415 -435 424 -456 q 432 -477 432 -505 l 432 -505 q 432 -524 428 -543 q 424 -562 420 -581 q 415 -601 411 -620 q 407 -640 407 -661 l 407 -661 q 407 -688 413 -713 q 418 -738 431 -757 q 444 -776 465 -787 q 486 -799 517 -799 l 517 -799 q 557 -799 589 -785 q 620 -772 642 -748 q 663 -725 675 -694 q 686 -664 686 -629 l 686 -629 q 686 -604 674 -575 q 661 -547 647 -518 q 632 -489 620 -460 q 607 -432 607 -407 l 607 -407 q 607 -355 630 -309 q 652 -264 680 -220 q 707 -176 730 -131 q 752 -86 752 -35 l 752 -35 q 752 6 742 45 q 732 84 710 114 q 688 144 655 163 q 622 181 575 181 l 575 181 q 531 181 501 169 q 471 157 453 135 q 435 112 427 80 q 418 48 418 9 l 418 9 l 418 1 q 418 -27 424 -54 q 430 -82 437 -109 q 444 -136 450 -163 q 456 -190 456 -218","ha":764,"x_min":12,"x_max":752},"I":{"o":"m 197 -808 l 197 -808 q 268 -808 309 -777 q 349 -746 349 -692 l 349 -692 q 349 -658 335 -620 q 321 -583 304 -543 q 286 -503 272 -462 q 258 -421 258 -380 l 258 -380 q 258 -334 277 -292 q 295 -250 317 -205 q 339 -161 358 -110 q 376 -59 376 7 l 376 7 q 376 185 206 185 l 206 185 q 119 185 66 144 q 12 102 9 33 l 9 33 l 9 26 q 9 -7 23 -37 q 36 -68 57 -98 q 77 -128 101 -157 q 125 -186 146 -216 q 166 -247 180 -279 q 193 -311 193 -346 l 193 -346 q 193 -391 171 -428 q 149 -465 122 -502 q 95 -539 73 -579 q 51 -619 51 -669 l 51 -669 q 51 -808 197 -808","ha":421,"x_min":9,"x_max":376},"J":{"o":"m 349 -730 l 349 -730 q 374 -730 398 -736 q 421 -743 445 -750 q 469 -758 493 -764 q 517 -771 543 -771 l 543 -771 q 589 -771 614 -747 q 639 -724 639 -680 l 639 -680 q 639 -645 624 -624 q 609 -603 584 -603 l 584 -603 q 568 -603 552 -610 q 536 -618 521 -627 q 506 -637 493 -644 q 480 -652 472 -652 l 472 -652 q 456 -652 456 -636 l 456 -636 q 456 -627 466 -600 q 476 -573 490 -540 q 503 -507 517 -473 q 531 -440 539 -418 l 539 -418 q 559 -365 570 -301 q 581 -238 581 -178 l 581 -178 q 581 -100 562 -37 q 543 25 507 70 q 471 114 421 138 q 370 161 307 161 l 307 161 q 246 161 194 140 q 141 118 103 80 q 65 41 44 -11 q 22 -64 22 -126 l 22 -126 q 22 -176 36 -219 q 50 -262 74 -294 q 98 -326 131 -344 q 164 -362 202 -362 l 202 -362 q 247 -362 272 -337 q 296 -313 296 -268 l 296 -268 q 296 -238 287 -220 q 277 -203 266 -191 q 255 -179 246 -169 q 236 -159 236 -144 l 236 -144 q 236 -121 259 -106 q 282 -91 317 -91 l 317 -91 q 352 -91 382 -107 q 411 -124 433 -153 q 455 -182 467 -222 q 479 -262 479 -309 l 479 -309 q 479 -363 462 -425 l 462 -425 q 449 -472 427 -514 q 405 -556 379 -587 q 353 -618 325 -636 q 297 -654 271 -654 l 271 -654 q 247 -654 227 -639 q 206 -625 187 -607 q 167 -590 146 -575 q 125 -561 100 -561 l 100 -561 q 65 -561 44 -589 q 23 -617 23 -663 l 23 -663 q 23 -717 54 -747 q 84 -778 136 -778 l 136 -778 q 163 -778 190 -770 q 216 -763 243 -754 q 269 -745 296 -737 q 322 -730 349 -730","ha":662,"x_min":22,"x_max":639},"K":{"o":"m 41 -662 l 41 -662 q 41 -728 78 -764 q 114 -800 180 -800 l 180 -800 q 242 -800 277 -769 q 312 -739 312 -685 l 312 -685 q 312 -665 308 -646 q 304 -627 299 -609 q 293 -592 289 -575 q 285 -559 285 -542 l 285 -542 q 285 -513 306 -513 l 306 -513 q 327 -513 345 -532 q 363 -552 381 -581 q 398 -611 417 -645 q 436 -680 460 -709 q 483 -739 513 -758 q 542 -778 581 -778 l 581 -778 q 609 -778 633 -767 q 656 -757 674 -738 q 691 -719 701 -694 q 710 -669 710 -639 l 710 -639 q 710 -608 700 -579 q 689 -550 672 -527 q 655 -505 633 -491 q 610 -478 586 -478 l 586 -478 q 562 -478 546 -496 q 530 -515 519 -536 q 507 -558 498 -576 q 489 -595 478 -595 l 478 -595 q 467 -595 449 -575 q 431 -556 415 -529 q 398 -503 386 -475 q 374 -447 374 -430 l 374 -430 q 374 -403 401 -377 q 427 -351 467 -324 q 507 -297 553 -267 q 599 -238 639 -202 q 679 -166 706 -123 q 732 -80 732 -26 l 732 -26 q 732 11 720 44 q 707 77 685 102 q 663 127 634 142 q 605 156 573 156 l 573 156 q 509 156 471 102 q 432 47 430 -46 l 430 -46 l 430 -55 q 430 -104 421 -154 q 411 -204 396 -244 q 380 -285 362 -311 q 343 -337 325 -337 l 325 -337 q 315 -337 306 -329 q 297 -321 290 -307 q 283 -294 279 -276 q 275 -259 275 -240 l 275 -240 q 275 -202 290 -170 q 305 -138 323 -108 q 340 -78 355 -47 q 370 -16 370 20 l 370 20 q 370 53 356 82 q 342 111 317 133 q 292 154 259 167 q 226 179 188 179 l 188 179 q 150 179 115 167 q 80 154 54 133 q 27 112 12 85 q -4 57 -4 27 l -4 27 q -4 -2 10 -29 q 24 -57 45 -84 q 66 -111 90 -138 q 114 -166 135 -195 q 156 -224 170 -255 q 184 -286 184 -320 l 184 -320 q 184 -350 174 -376 q 163 -402 147 -428 q 131 -454 113 -479 q 94 -505 78 -533 q 62 -562 52 -593 q 41 -625 41 -662","ha":747,"x_min":-4,"x_max":732},"L":{"o":"m 8 -639 l 8 -639 q 8 -710 52 -751 q 96 -792 171 -792 l 171 -792 q 231 -792 257 -764 q 282 -736 282 -671 l 282 -671 q 282 -619 269 -558 q 255 -498 240 -434 q 224 -370 211 -305 q 197 -241 197 -181 l 197 -181 q 197 -95 227 -46 q 257 2 311 2 l 311 2 q 333 2 357 -6 q 380 -14 400 -26 q 419 -38 432 -53 q 445 -68 445 -82 l 445 -82 q 445 -95 435 -112 q 424 -129 411 -148 q 398 -168 388 -189 q 377 -211 377 -233 l 377 -233 q 377 -254 388 -273 q 399 -292 418 -307 q 437 -322 462 -330 q 487 -339 514 -339 l 514 -339 q 580 -339 616 -288 q 652 -238 652 -145 l 652 -145 q 652 8 551 87 q 450 166 255 166 l 255 166 q 128 166 73 128 q 18 90 18 2 l 18 2 q 18 -45 30 -87 q 42 -129 57 -168 q 72 -207 84 -245 q 96 -284 96 -324 l 96 -324 q 96 -366 83 -405 q 69 -444 53 -482 q 36 -520 22 -558 q 8 -597 8 -639","ha":681,"x_min":8,"x_max":652},"M":{"o":"m 146 -799 l 146 -799 q 185 -799 217 -778 q 249 -757 275 -723 q 300 -690 320 -648 q 339 -606 355 -563 q 370 -521 381 -483 q 392 -445 400 -419 l 400 -419 q 403 -411 407 -400 q 410 -390 414 -381 q 417 -372 421 -365 q 425 -359 428 -359 l 428 -359 q 431 -359 436 -366 q 440 -373 444 -382 q 448 -392 452 -402 q 456 -413 458 -419 l 458 -419 q 466 -440 477 -475 q 488 -510 504 -550 q 519 -591 538 -632 q 557 -674 579 -707 q 601 -741 627 -762 q 653 -784 682 -784 l 682 -784 q 716 -784 738 -755 q 760 -726 760 -680 l 760 -680 q 760 -651 752 -619 q 743 -588 733 -555 q 722 -523 714 -491 q 705 -459 705 -428 l 705 -428 q 705 -393 717 -365 q 729 -338 747 -314 q 765 -290 786 -266 q 806 -243 824 -216 q 842 -189 854 -155 q 866 -122 866 -77 l 866 -77 q 866 -31 853 7 q 839 45 815 73 q 790 100 757 116 q 723 131 683 131 l 683 131 q 621 131 588 95 q 555 58 553 -13 l 553 -13 l 553 -20 q 553 -77 570 -124 q 586 -172 607 -213 q 627 -254 644 -290 q 660 -327 660 -362 l 660 -362 q 660 -379 656 -396 q 651 -414 644 -428 q 637 -442 628 -450 q 618 -459 609 -459 l 609 -459 q 595 -459 582 -438 q 568 -417 555 -385 q 542 -353 529 -316 q 516 -279 503 -247 q 489 -215 475 -194 q 461 -173 446 -173 l 446 -173 q 432 -173 419 -190 q 405 -208 392 -234 q 378 -260 365 -290 q 352 -321 340 -347 q 328 -373 317 -390 q 306 -408 296 -408 l 296 -408 q 284 -408 276 -382 q 267 -357 267 -322 l 267 -322 q 267 -281 278 -242 q 288 -203 301 -162 q 313 -122 324 -78 q 334 -35 334 15 l 334 15 q 334 89 305 121 q 276 152 208 152 l 208 152 q 125 152 77 111 q 28 69 25 -4 l 25 -4 l 25 -11 q 25 -70 52 -118 q 78 -167 110 -210 q 142 -253 169 -294 q 195 -335 195 -379 l 195 -379 q 195 -421 171 -462 q 147 -504 119 -544 q 90 -585 66 -624 q 42 -664 42 -703 l 42 -703 q 42 -745 72 -772 q 101 -799 146 -799","ha":891,"x_min":25,"x_max":866},"N":{"o":"m 169 -778 l 169 -778 q 212 -778 237 -761 q 261 -744 273 -702 l 273 -702 q 277 -688 286 -660 q 295 -632 308 -597 q 321 -563 337 -526 q 352 -490 369 -460 q 386 -430 404 -411 q 421 -392 438 -392 l 438 -392 q 450 -392 467 -397 q 483 -403 498 -414 q 513 -426 524 -444 q 534 -463 534 -488 l 534 -488 q 534 -515 520 -542 q 505 -569 488 -596 q 471 -623 457 -649 q 442 -676 442 -703 l 442 -703 q 442 -763 476 -791 q 510 -820 568 -820 l 568 -820 q 589 -820 611 -811 q 633 -802 651 -786 q 668 -770 679 -750 q 690 -730 690 -707 l 690 -707 q 690 -638 682 -571 q 674 -504 674 -435 l 674 -435 q 674 -391 684 -349 q 694 -307 707 -265 q 719 -223 729 -181 q 739 -140 739 -96 l 739 -96 q 739 -53 730 -15 q 721 22 702 50 q 683 77 653 93 q 623 108 580 108 l 580 108 q 538 108 507 90 q 475 72 454 43 q 432 14 421 -23 q 410 -60 410 -98 l 410 -98 q 410 -126 402 -159 q 394 -192 381 -225 q 368 -259 352 -290 q 335 -322 318 -346 q 301 -371 285 -385 q 269 -400 257 -400 l 257 -400 q 248 -400 243 -394 q 238 -388 235 -380 q 232 -372 232 -363 q 231 -354 231 -348 l 231 -348 q 231 -320 248 -283 q 265 -247 285 -206 q 305 -166 322 -125 q 339 -84 339 -47 l 339 -47 q 339 -11 328 21 q 316 53 295 77 q 274 101 244 115 q 213 128 175 128 l 175 128 q 139 128 109 114 q 78 100 56 77 q 33 53 20 22 q 7 -10 7 -46 l 7 -46 q 7 -106 18 -164 q 29 -222 42 -279 q 54 -337 65 -395 q 76 -453 76 -512 l 76 -512 q 76 -557 67 -600 q 57 -643 57 -679 l 57 -679 q 57 -728 91 -753 q 124 -778 169 -778","ha":754,"x_min":7,"x_max":739},"O":{"o":"m 97 -330 l 97 -330 q 97 -363 86 -386 q 75 -409 62 -432 q 48 -455 37 -482 q 25 -509 25 -550 l 25 -550 q 25 -609 58 -658 q 90 -708 141 -744 q 192 -780 255 -800 q 317 -821 378 -821 l 378 -821 q 439 -821 496 -803 q 553 -785 598 -752 q 642 -719 669 -672 q 695 -625 695 -568 l 695 -568 q 695 -531 687 -501 q 679 -471 670 -445 q 660 -419 652 -395 q 644 -371 644 -345 l 644 -345 q 644 -317 654 -295 q 663 -274 674 -251 q 685 -228 695 -200 q 704 -172 704 -131 l 704 -131 q 704 -69 679 -17 q 654 34 609 71 q 563 108 500 129 q 437 149 361 149 l 361 149 q 290 149 233 131 q 175 113 135 80 q 94 46 73 -1 q 51 -49 51 -108 l 51 -108 q 51 -144 58 -173 q 65 -203 74 -229 q 83 -255 90 -279 q 97 -303 97 -330 m 337 -654 l 337 -654 q 301 -654 274 -632 q 247 -610 229 -572 q 210 -535 201 -486 q 191 -438 191 -384 l 191 -384 q 191 -303 204 -248 q 216 -194 238 -161 q 259 -128 288 -114 q 317 -101 350 -101 l 350 -101 q 382 -101 408 -122 q 433 -144 452 -181 q 471 -219 481 -269 q 491 -320 491 -378 l 491 -378 q 491 -454 477 -506 q 462 -559 440 -592 q 417 -625 390 -639 q 362 -654 337 -654","ha":725,"x_min":25,"x_max":704},"P":{"o":"m 43 -673 l 43 -673 q 43 -749 102 -788 q 161 -828 276 -828 l 276 -828 q 359 -828 425 -807 q 491 -787 537 -748 q 582 -710 607 -654 q 631 -599 631 -529 l 631 -529 q 631 -474 616 -428 q 601 -382 574 -349 q 546 -316 508 -297 q 470 -279 424 -279 l 424 -279 q 394 -279 367 -286 q 340 -293 319 -301 q 297 -310 280 -317 q 263 -324 252 -324 l 252 -324 q 243 -324 238 -317 q 233 -311 233 -294 l 233 -294 q 233 -268 245 -244 q 256 -220 273 -197 q 290 -174 310 -151 q 330 -128 348 -103 q 365 -79 377 -51 q 389 -23 390 9 l 390 9 l 390 14 q 390 80 342 118 q 294 156 210 156 l 210 156 q 119 156 67 111 q 14 65 14 -13 l 14 -13 q 14 -63 34 -108 q 53 -153 76 -195 q 99 -237 119 -278 q 138 -319 138 -361 l 138 -361 q 138 -399 123 -436 q 108 -474 91 -513 q 73 -552 58 -591 q 43 -631 43 -673 m 335 -378 l 335 -378 q 352 -378 368 -391 q 384 -405 397 -427 q 410 -449 418 -477 q 426 -505 426 -533 l 426 -533 q 426 -564 417 -592 q 407 -621 391 -643 q 375 -665 354 -678 q 333 -692 311 -692 l 311 -692 q 278 -692 260 -662 q 242 -632 242 -575 l 242 -575 q 242 -537 250 -501 q 258 -466 271 -438 q 283 -411 300 -394 q 317 -378 335 -378","ha":642,"x_min":14,"x_max":631},"Q":{"o":"m 411 -800 l 411 -800 q 483 -800 545 -766 q 606 -733 651 -674 q 696 -615 721 -533 q 746 -452 746 -356 l 746 -356 q 746 -295 737 -251 q 727 -207 713 -176 q 698 -146 681 -125 q 664 -105 650 -91 q 635 -78 626 -68 q 616 -58 616 -48 l 616 -48 q 616 -36 630 -20 q 644 -5 662 15 q 679 35 693 62 q 707 89 707 124 l 707 124 q 707 167 683 195 q 658 223 614 223 l 614 223 q 573 223 548 202 q 522 181 522 136 l 522 136 q 522 123 526 109 q 529 94 533 79 q 537 64 541 50 q 544 35 544 23 l 544 23 q 544 17 544 9 q 543 0 536 0 l 536 0 q 528 0 514 12 q 499 23 475 37 q 450 50 414 62 q 378 73 326 73 l 326 73 q 255 73 199 48 q 142 23 103 -24 q 64 -71 44 -138 q 23 -205 23 -290 l 23 -290 q 23 -360 39 -425 q 55 -490 84 -547 q 112 -604 150 -650 q 187 -697 231 -730 q 274 -763 320 -781 q 366 -800 411 -800 m 274 -349 l 274 -349 q 274 -131 412 -131 l 412 -131 q 487 -131 528 -193 q 569 -256 569 -371 l 569 -371 q 569 -433 558 -487 q 546 -542 526 -583 q 506 -624 480 -647 q 454 -671 424 -671 l 424 -671 q 393 -671 366 -645 q 339 -620 319 -576 q 298 -532 286 -473 q 274 -415 274 -349","ha":768,"x_min":23,"x_max":746},"R":{"o":"m 390 -348 l 390 -348 q 390 -337 416 -317 q 442 -298 481 -272 q 519 -247 565 -216 q 610 -186 649 -152 q 687 -118 713 -81 q 739 -44 739 -7 l 739 -7 q 739 23 722 52 q 704 81 675 104 q 646 126 609 140 q 572 154 533 154 l 533 154 q 505 154 481 147 q 456 139 438 126 q 420 112 410 95 q 399 77 399 56 l 399 56 q 399 33 411 18 q 422 2 436 -11 q 450 -25 462 -39 q 473 -54 473 -75 l 473 -75 q 473 -101 455 -134 q 437 -168 411 -199 q 385 -230 357 -251 q 328 -272 306 -272 l 306 -272 q 287 -272 274 -255 q 260 -239 260 -216 l 260 -216 q 260 -189 278 -165 q 296 -141 317 -115 q 338 -90 356 -62 q 374 -34 374 0 l 374 0 q 374 30 358 58 q 341 86 313 108 q 285 129 249 142 q 212 154 172 154 l 172 154 q 104 154 62 119 q 19 84 19 28 l 19 28 q 19 -2 31 -29 q 43 -57 62 -83 q 80 -110 101 -135 q 122 -161 141 -186 q 159 -212 171 -237 q 183 -262 183 -288 l 183 -288 q 183 -314 171 -338 q 159 -363 142 -387 q 124 -412 104 -437 q 83 -463 66 -490 q 48 -517 36 -547 q 24 -577 24 -610 l 24 -610 q 24 -654 45 -691 q 65 -729 101 -757 q 137 -786 186 -802 q 234 -818 289 -818 l 289 -818 q 354 -818 414 -796 q 473 -774 519 -736 q 564 -699 591 -650 q 618 -602 618 -549 l 618 -549 q 618 -506 601 -477 q 584 -448 559 -429 q 534 -410 504 -398 q 474 -387 449 -378 q 424 -370 407 -363 q 390 -357 390 -348 m 223 -531 l 223 -531 q 223 -507 232 -482 q 240 -457 254 -437 q 267 -417 283 -404 q 298 -391 313 -391 l 313 -391 q 331 -391 347 -400 q 362 -409 374 -425 q 385 -441 392 -461 q 399 -482 399 -506 l 399 -506 q 399 -530 392 -553 q 385 -576 374 -594 q 363 -613 350 -624 q 336 -636 322 -636 l 322 -636 q 308 -636 291 -630 q 273 -625 258 -612 q 243 -600 233 -580 q 223 -560 223 -531","ha":746,"x_min":19,"x_max":739},"S":{"o":"m 406 -820 l 406 -820 q 466 -820 516 -806 q 565 -793 601 -768 q 637 -744 657 -710 q 677 -677 677 -637 l 677 -637 q 677 -587 647 -559 q 616 -532 560 -532 l 560 -532 q 516 -532 492 -549 q 468 -566 468 -598 l 468 -598 q 468 -635 440 -662 q 412 -689 368 -689 l 368 -689 q 346 -689 320 -678 q 294 -668 272 -652 q 249 -636 234 -617 q 218 -598 218 -580 l 218 -580 q 218 -558 241 -539 q 264 -521 302 -502 q 340 -484 389 -464 q 437 -445 487 -422 q 537 -400 586 -372 q 634 -344 672 -308 q 710 -273 733 -228 q 756 -183 756 -127 l 756 -127 q 756 -66 728 -14 q 700 38 650 76 q 600 113 532 134 q 464 155 383 155 l 383 155 q 302 155 233 134 q 163 112 113 74 q 63 35 35 -18 q 6 -71 6 -134 l 6 -134 q 6 -211 48 -256 q 89 -302 160 -302 l 160 -302 q 211 -302 239 -278 q 266 -254 266 -211 l 266 -211 q 266 -185 283 -163 q 300 -142 324 -127 q 348 -112 374 -104 q 400 -96 417 -96 l 417 -96 q 434 -96 453 -100 q 471 -105 487 -113 q 503 -121 513 -132 q 523 -144 523 -159 l 523 -159 q 523 -183 504 -204 q 484 -226 453 -246 q 421 -267 381 -288 q 341 -309 299 -331 q 256 -354 216 -379 q 176 -405 145 -435 q 113 -466 94 -502 q 74 -538 74 -582 l 74 -582 q 74 -632 100 -675 q 125 -719 170 -751 q 215 -783 276 -801 q 336 -820 406 -820","ha":770,"x_min":6,"x_max":756},"T":{"o":"m 358 -800 l 358 -800 q 389 -800 430 -799 q 471 -799 514 -795 q 556 -791 596 -782 q 635 -774 663 -758 l 663 -758 q 695 -739 708 -716 q 720 -694 720 -656 l 720 -656 q 720 -639 717 -622 q 714 -605 706 -591 q 698 -578 685 -569 q 671 -561 650 -561 l 650 -561 q 625 -561 606 -573 q 586 -585 570 -599 q 554 -613 539 -625 q 524 -637 507 -637 l 507 -637 q 484 -637 466 -619 q 448 -602 435 -577 q 422 -552 416 -525 q 409 -498 409 -480 l 409 -480 q 409 -430 433 -377 q 457 -325 486 -269 q 515 -214 539 -155 q 563 -96 563 -32 l 563 -32 q 563 55 514 95 q 464 134 381 134 l 381 134 q 337 134 295 122 q 253 110 221 86 q 188 61 168 25 q 148 -12 148 -61 l 148 -61 q 148 -100 162 -138 q 176 -176 197 -216 q 218 -257 243 -300 q 267 -344 288 -392 q 309 -441 323 -496 q 337 -551 337 -615 l 337 -615 q 337 -624 335 -635 q 333 -646 329 -655 q 324 -665 317 -671 q 309 -678 297 -678 l 297 -678 q 274 -678 257 -656 q 239 -635 221 -609 q 202 -584 179 -562 q 155 -541 120 -541 l 120 -541 q 97 -541 78 -551 q 58 -561 44 -577 q 29 -594 21 -615 q 12 -636 12 -658 l 12 -658 q 12 -693 31 -717 q 50 -741 81 -757 q 111 -773 149 -781 q 187 -790 226 -794 q 264 -798 299 -799 q 334 -800 358 -800","ha":727,"x_min":12,"x_max":720},"U":{"o":"m 664 -402 l 664 -402 q 664 -373 674 -345 q 683 -318 694 -287 q 705 -257 715 -220 q 724 -183 724 -135 l 724 -135 q 724 -72 700 -22 q 676 27 633 62 q 590 97 530 116 q 470 134 399 134 l 399 134 q 51 134 51 -124 l 51 -124 q 51 -159 56 -191 q 61 -224 68 -254 q 74 -285 79 -313 q 84 -342 84 -369 l 84 -369 q 84 -405 75 -438 q 65 -472 54 -505 q 43 -538 34 -571 q 24 -605 24 -642 l 24 -642 q 24 -681 36 -713 q 48 -746 70 -769 q 92 -793 122 -805 q 152 -818 189 -818 l 189 -818 q 255 -818 293 -778 q 331 -739 331 -671 l 331 -671 q 331 -620 311 -583 q 291 -546 267 -512 q 242 -478 222 -440 q 202 -403 202 -351 l 202 -351 q 202 -315 213 -281 q 223 -248 242 -222 q 260 -197 285 -181 q 309 -166 337 -166 l 337 -166 l 345 -166 q 380 -169 408 -186 q 435 -203 455 -229 q 474 -256 484 -291 q 494 -327 494 -368 l 494 -368 q 494 -407 485 -441 q 475 -475 464 -507 q 452 -540 443 -572 q 433 -604 433 -639 l 433 -639 q 433 -703 469 -740 q 505 -778 566 -778 l 566 -778 q 599 -778 627 -766 q 655 -755 675 -734 q 695 -714 706 -685 q 717 -657 717 -622 l 717 -622 q 717 -590 709 -562 q 700 -534 691 -507 q 681 -481 673 -455 q 664 -429 664 -402","ha":749,"x_min":24,"x_max":724},"V":{"o":"m 4 -666 l 4 -666 q 4 -697 14 -723 q 24 -749 42 -767 q 59 -785 84 -795 q 109 -805 139 -805 l 139 -805 q 172 -805 199 -792 q 226 -780 246 -757 q 265 -735 276 -704 q 286 -673 286 -635 l 286 -635 q 286 -608 282 -583 q 277 -558 271 -533 q 265 -508 261 -481 q 256 -454 256 -423 l 256 -423 q 256 -376 268 -329 q 280 -283 299 -245 q 318 -208 342 -185 q 366 -162 390 -162 l 390 -162 q 410 -162 428 -177 q 445 -193 459 -219 q 473 -246 481 -280 q 489 -315 489 -353 l 489 -353 q 489 -380 486 -406 q 482 -432 478 -459 q 473 -486 470 -513 q 466 -541 466 -571 l 466 -571 q 466 -624 480 -667 q 493 -710 519 -741 q 544 -772 580 -788 q 615 -805 658 -805 l 658 -805 q 724 -805 759 -767 q 794 -729 794 -658 l 794 -658 q 794 -615 782 -587 q 770 -560 753 -538 q 735 -517 715 -496 q 694 -476 677 -447 q 659 -419 647 -377 q 635 -336 635 -272 l 635 -272 q 635 -186 613 -108 q 590 -30 552 29 q 514 88 464 123 q 413 157 357 157 l 357 157 q 315 157 279 137 q 243 116 217 80 q 191 44 177 -6 q 162 -56 162 -115 l 162 -115 q 162 -144 165 -165 q 168 -186 172 -205 q 175 -224 178 -241 q 181 -259 181 -280 l 181 -280 q 181 -322 168 -357 q 155 -392 135 -422 q 115 -453 93 -480 q 70 -508 50 -537 q 30 -566 17 -597 q 4 -629 4 -666","ha":804,"x_min":4,"x_max":794},"W":{"o":"m 150 -787 l 150 -787 q 215 -787 252 -757 q 288 -727 288 -673 l 288 -673 q 288 -645 279 -617 q 270 -589 260 -557 q 249 -526 240 -490 q 231 -454 231 -410 l 231 -410 q 231 -406 232 -384 q 233 -362 239 -337 q 244 -312 257 -292 q 269 -272 291 -272 l 291 -272 q 318 -272 332 -301 q 345 -331 353 -376 q 361 -421 366 -472 q 371 -524 380 -569 q 389 -614 406 -643 q 423 -673 454 -673 l 454 -673 q 481 -673 501 -650 q 520 -628 535 -590 q 550 -553 561 -505 q 571 -458 580 -408 q 588 -359 596 -311 q 603 -264 611 -226 q 619 -189 628 -166 q 637 -144 650 -144 l 650 -144 q 664 -144 680 -171 q 696 -199 710 -241 q 723 -283 732 -332 q 740 -382 740 -426 l 740 -426 q 740 -477 729 -516 q 718 -556 706 -589 q 693 -623 682 -653 q 671 -683 671 -715 l 671 -715 q 671 -821 803 -821 l 803 -821 q 876 -821 921 -790 q 966 -759 966 -708 l 966 -708 q 966 -675 948 -640 q 930 -606 908 -569 q 886 -533 868 -494 q 850 -455 850 -413 l 850 -413 q 850 -381 861 -347 q 871 -314 884 -279 q 897 -244 908 -207 q 918 -171 918 -133 l 918 -133 q 918 -85 900 -40 q 881 5 851 40 q 821 74 782 95 q 742 115 700 115 l 700 115 q 663 115 629 99 q 594 82 569 54 q 543 26 528 -11 q 512 -48 512 -89 l 512 -89 q 512 -125 521 -154 q 529 -184 529 -206 l 529 -206 q 529 -221 524 -236 q 518 -252 509 -264 q 500 -277 490 -285 q 479 -294 468 -294 l 468 -294 q 456 -294 443 -282 q 430 -271 419 -253 q 407 -236 400 -215 q 393 -194 393 -175 l 393 -175 q 393 -155 401 -137 q 408 -119 418 -102 q 427 -85 435 -67 q 443 -49 444 -29 l 444 -29 l 444 -25 q 444 5 427 33 q 410 60 382 81 q 353 102 316 115 q 278 127 238 127 l 238 127 q 193 127 154 111 q 114 94 85 66 q 55 37 39 -1 q 22 -39 22 -83 l 22 -83 q 22 -125 36 -163 q 50 -202 67 -238 q 83 -275 97 -310 q 111 -346 111 -383 l 111 -383 q 111 -423 95 -457 q 79 -491 60 -524 q 40 -557 24 -591 q 7 -625 7 -665 l 7 -665 q 7 -722 45 -754 q 83 -787 150 -787","ha":965,"x_min":7,"x_max":966},"X":{"o":"m 374 -208 l 374 -208 q 358 -208 345 -197 q 331 -187 321 -172 q 311 -157 306 -139 q 300 -122 300 -108 l 300 -108 q 300 -95 303 -83 q 305 -71 308 -59 l 308 -59 l 315 -35 q 323 -11 323 10 l 323 10 l 324 14 q 324 37 311 53 q 298 69 279 79 q 259 89 237 94 q 214 99 195 99 l 195 99 q 166 99 135 90 q 104 80 79 62 q 53 44 37 18 q 20 -8 19 -40 l 19 -40 l 19 -43 q 19 -78 39 -109 q 59 -140 89 -169 q 119 -199 155 -227 q 190 -255 220 -282 q 250 -309 270 -336 q 290 -364 290 -392 l 290 -392 q 290 -419 272 -439 q 253 -459 226 -476 q 199 -494 167 -511 q 134 -528 107 -547 q 80 -566 62 -589 q 43 -613 43 -645 l 43 -645 q 43 -671 55 -694 q 67 -718 87 -737 q 106 -756 131 -767 q 156 -778 181 -778 l 181 -778 q 214 -778 237 -760 q 260 -742 277 -715 q 293 -688 306 -656 q 318 -625 331 -598 q 344 -571 359 -553 q 374 -535 395 -535 l 395 -535 q 427 -535 445 -553 q 463 -572 475 -600 q 486 -629 495 -661 q 503 -694 516 -722 q 528 -751 548 -769 q 568 -788 602 -788 l 602 -788 q 625 -788 644 -779 q 662 -771 676 -756 q 690 -741 698 -721 q 705 -701 705 -679 l 705 -679 q 705 -647 691 -624 q 676 -602 654 -583 q 632 -564 607 -547 q 582 -530 560 -509 q 538 -488 524 -460 q 509 -433 509 -394 l 509 -394 q 509 -364 527 -339 q 544 -315 570 -291 q 596 -268 626 -245 q 656 -222 682 -193 q 708 -165 726 -130 q 743 -96 743 -51 l 743 -51 q 743 -14 731 15 q 718 43 697 63 q 675 82 645 92 q 615 102 579 102 l 579 102 q 553 102 525 96 q 497 89 474 76 q 451 62 436 40 q 420 18 419 -12 l 419 -12 l 419 -15 q 419 -30 423 -44 q 427 -58 432 -72 q 436 -87 440 -101 q 444 -115 444 -130 l 444 -130 q 444 -142 438 -156 q 432 -170 422 -181 q 412 -193 400 -200 q 387 -208 374 -208","ha":756,"x_min":19,"x_max":743},"Y":{"o":"m 292 -546 l 292 -546 q 318 -546 331 -564 q 344 -583 351 -611 q 358 -640 364 -672 q 369 -705 379 -733 q 389 -762 407 -780 q 424 -799 457 -799 l 457 -799 q 481 -799 502 -789 q 522 -779 538 -762 q 553 -746 562 -724 q 571 -703 571 -680 l 571 -680 q 571 -646 555 -615 q 538 -585 513 -556 q 488 -527 460 -498 q 431 -470 406 -440 q 381 -410 365 -378 q 348 -347 348 -312 l 348 -312 q 348 -286 357 -263 q 366 -240 380 -218 q 394 -197 410 -176 q 426 -155 440 -133 q 454 -112 464 -88 q 473 -65 474 -38 l 474 -38 l 474 -34 q 474 1 460 25 q 445 49 422 64 q 399 79 370 86 q 341 93 311 93 l 311 93 q 283 93 254 87 q 224 80 200 66 q 175 52 159 30 q 143 7 142 -26 l 142 -26 l 142 -29 q 142 -66 160 -103 q 178 -140 200 -176 q 221 -212 239 -247 q 257 -283 257 -316 l 257 -316 q 257 -359 239 -392 q 220 -426 192 -453 q 163 -481 131 -504 q 98 -528 70 -551 q 41 -575 23 -600 q 4 -626 4 -656 l 4 -656 q 4 -680 17 -704 q 29 -729 49 -748 q 68 -767 93 -779 q 118 -791 142 -791 l 142 -791 q 172 -791 188 -773 q 204 -755 212 -727 q 220 -700 225 -668 q 229 -637 236 -609 q 242 -582 255 -564 q 267 -546 292 -546","ha":586,"x_min":4,"x_max":571},"Z":{"o":"m 319 85 l 319 85 q 258 85 203 69 q 148 52 107 25 q 65 -3 41 -40 q 16 -77 16 -118 l 16 -118 q 16 -163 44 -203 q 72 -243 114 -280 q 155 -317 204 -351 q 252 -386 294 -418 q 335 -451 363 -482 q 391 -514 391 -545 l 391 -545 q 391 -560 385 -574 q 378 -588 368 -599 q 357 -610 344 -616 q 330 -623 316 -623 l 316 -623 q 297 -623 282 -611 q 266 -600 252 -583 q 238 -566 225 -546 q 211 -526 195 -509 q 179 -492 160 -480 q 140 -469 114 -469 l 114 -469 q 77 -469 56 -492 q 35 -516 35 -558 l 35 -558 q 35 -606 64 -649 q 93 -693 142 -726 q 190 -759 254 -779 q 318 -799 388 -799 l 388 -799 q 440 -799 485 -788 q 530 -777 563 -757 q 596 -737 615 -710 q 633 -684 633 -652 l 633 -652 q 633 -612 605 -577 q 576 -542 533 -510 q 490 -478 440 -448 q 390 -418 347 -388 q 304 -358 276 -327 q 247 -296 247 -262 l 247 -262 q 247 -242 257 -222 q 267 -202 284 -186 q 300 -171 320 -161 q 340 -151 361 -151 l 361 -151 q 382 -151 402 -161 q 421 -172 436 -190 q 450 -209 459 -233 q 467 -257 467 -284 l 467 -284 q 467 -329 491 -352 q 515 -375 560 -375 l 560 -375 q 622 -375 659 -333 q 696 -292 696 -223 l 696 -223 q 696 -161 666 -105 q 635 -49 584 -7 q 532 35 464 60 q 395 85 319 85","ha":706,"x_min":16,"x_max":696},"a":{"o":"m 1 6 l 1 6 q 1 -38 23 -75 q 45 -112 78 -147 q 111 -182 149 -216 q 187 -250 220 -287 q 253 -324 275 -366 q 297 -408 297 -458 l 297 -458 q 297 -488 290 -511 q 282 -534 273 -553 q 264 -573 257 -590 q 249 -608 249 -629 l 249 -629 q 249 -659 267 -686 q 284 -713 314 -734 q 343 -755 382 -767 q 421 -779 463 -779 l 463 -779 q 500 -779 532 -769 q 563 -760 587 -743 q 610 -726 623 -702 q 636 -679 636 -652 l 636 -652 q 636 -639 633 -621 q 630 -604 627 -585 q 623 -566 620 -546 q 617 -527 617 -509 l 617 -509 q 617 -460 641 -425 q 664 -391 700 -363 q 735 -335 776 -309 q 817 -283 853 -251 q 888 -220 912 -178 q 935 -137 935 -78 l 935 -78 q 935 7 885 56 q 834 105 747 105 l 747 105 q 600 105 600 -43 l 600 -43 q 600 -83 590 -118 q 580 -154 563 -180 q 545 -207 522 -222 q 499 -238 473 -238 l 473 -238 q 446 -238 430 -221 q 414 -204 404 -176 q 394 -148 388 -112 q 381 -76 373 -39 q 365 -2 354 34 q 342 70 321 98 q 300 126 267 143 q 234 160 185 160 l 185 160 q 145 160 111 149 q 77 137 53 117 q 28 96 15 68 q 1 39 1 6 m 395 -412 l 395 -412 q 395 -385 417 -367 q 438 -349 470 -349 l 470 -349 q 500 -349 518 -367 q 535 -385 535 -417 l 535 -417 q 535 -433 529 -461 q 522 -490 512 -518 q 501 -546 488 -567 q 475 -588 462 -588 l 462 -588 q 447 -588 435 -566 q 422 -544 414 -514 q 405 -485 400 -456 q 395 -427 395 -412","ha":933,"x_min":1,"x_max":935},"b":{"o":"m 269 -788 l 269 -788 q 344 -788 405 -774 q 465 -761 508 -736 q 550 -711 573 -675 q 596 -640 596 -596 l 596 -596 q 596 -555 578 -525 q 559 -496 532 -475 q 505 -454 473 -439 q 440 -425 413 -414 q 386 -404 368 -396 q 349 -389 349 -380 l 349 -380 q 349 -370 374 -362 q 399 -355 437 -345 q 475 -336 519 -321 q 563 -306 601 -280 q 639 -255 664 -217 q 689 -179 689 -122 l 689 -122 q 689 -54 652 0 q 614 54 553 92 q 491 129 411 149 q 331 169 246 169 l 246 169 q 198 169 158 159 q 117 148 88 130 q 58 112 41 88 q 24 63 23 34 l 23 34 l 23 31 q 23 -5 45 -44 q 67 -83 93 -123 q 119 -163 141 -203 q 163 -244 163 -284 l 163 -284 q 163 -324 142 -363 q 120 -403 95 -445 q 69 -487 48 -533 q 26 -579 26 -632 l 26 -632 q 26 -712 86 -750 q 145 -788 269 -788 m 319 -451 l 319 -451 q 333 -451 346 -457 q 358 -464 368 -475 q 378 -486 384 -500 q 390 -514 390 -529 l 390 -529 q 390 -547 382 -567 q 373 -587 360 -604 q 347 -622 332 -633 q 317 -645 304 -645 l 304 -645 q 292 -645 280 -636 q 267 -627 257 -612 q 246 -598 240 -581 q 233 -564 233 -547 l 233 -547 q 233 -530 241 -512 q 248 -495 261 -481 q 273 -468 289 -459 q 304 -451 319 -451 m 311 -60 l 311 -60 q 329 -60 350 -72 q 371 -84 388 -102 q 405 -120 417 -141 q 428 -163 428 -182 l 428 -182 q 428 -200 418 -218 q 408 -236 393 -251 q 377 -266 358 -275 q 339 -285 321 -285 l 321 -285 q 292 -285 279 -257 q 265 -229 265 -166 l 265 -166 q 265 -109 276 -84 q 286 -60 311 -60","ha":720,"x_min":23,"x_max":689},"c":{"o":"m 33 -286 l 33 -286 q 33 -403 57 -499 q 81 -595 126 -663 q 170 -732 232 -770 q 293 -808 368 -808 l 368 -808 q 419 -808 467 -790 q 514 -773 551 -744 q 587 -716 609 -678 q 631 -641 631 -600 l 631 -600 q 631 -571 620 -545 q 609 -520 590 -501 q 570 -483 544 -472 q 517 -461 487 -461 l 487 -461 q 442 -461 415 -484 q 387 -507 387 -544 l 387 -544 q 387 -562 393 -586 q 398 -610 398 -632 q 398 -654 388 -669 q 378 -684 348 -684 l 348 -684 q 313 -684 281 -662 q 249 -641 225 -604 q 201 -567 187 -519 q 173 -471 173 -417 l 173 -417 q 173 -362 189 -314 q 204 -267 231 -232 q 258 -197 295 -177 q 332 -158 375 -158 l 375 -158 q 441 -158 479 -203 q 517 -248 517 -328 l 517 -328 q 517 -385 538 -411 q 559 -437 605 -437 l 605 -437 q 653 -437 673 -404 q 693 -371 693 -292 l 693 -292 q 693 -196 667 -116 q 641 -37 594 20 q 547 77 482 109 q 416 140 336 140 l 336 140 q 187 140 110 32 q 33 -77 33 -286","ha":707,"x_min":33,"x_max":693},"d":{"o":"m 231 -799 l 231 -799 q 286 -799 341 -779 q 395 -759 446 -723 q 496 -688 540 -640 q 584 -593 617 -538 q 649 -483 668 -423 q 686 -363 686 -304 l 686 -304 q 686 -245 668 -187 q 649 -129 617 -76 q 585 -23 541 22 q 496 67 445 100 q 393 133 336 152 q 279 171 221 171 l 221 171 q 136 171 89 132 q 42 92 42 20 l 42 20 q 42 -21 56 -64 q 70 -108 88 -151 q 105 -194 119 -235 q 133 -277 133 -315 l 133 -315 q 133 -350 122 -384 q 110 -419 96 -456 q 81 -493 70 -533 q 58 -574 58 -620 l 58 -620 q 58 -705 103 -752 q 148 -799 231 -799 m 307 -642 l 307 -642 q 272 -642 258 -582 q 243 -522 243 -401 l 243 -401 q 243 -270 258 -206 q 272 -143 312 -143 l 312 -143 q 333 -143 355 -162 q 376 -182 393 -214 q 410 -247 421 -290 q 431 -333 431 -380 l 431 -380 q 431 -425 420 -472 q 408 -519 390 -556 q 372 -594 350 -618 q 328 -642 307 -642","ha":700,"x_min":42,"x_max":686},"e":{"o":"m 317 -806 l 317 -806 q 388 -806 449 -798 q 509 -790 554 -772 q 598 -754 623 -724 q 648 -695 648 -651 l 648 -651 q 648 -602 634 -573 q 620 -544 602 -528 q 583 -513 565 -508 q 546 -504 538 -504 l 538 -504 q 498 -504 476 -515 q 454 -526 444 -543 q 434 -560 432 -579 q 430 -599 430 -616 l 430 -616 q 430 -635 428 -649 q 425 -664 416 -674 q 407 -684 391 -689 q 375 -694 348 -694 l 348 -694 q 326 -694 307 -684 q 287 -674 272 -656 q 257 -639 249 -616 q 240 -593 240 -566 l 240 -566 q 240 -542 249 -522 q 258 -502 273 -487 q 288 -473 308 -465 q 327 -457 348 -457 l 348 -457 q 360 -457 381 -459 q 402 -461 427 -462 q 451 -463 476 -460 q 501 -458 522 -450 q 542 -442 555 -426 q 568 -410 568 -383 l 568 -383 q 568 -351 550 -337 q 531 -323 505 -319 q 479 -316 450 -318 q 420 -321 399 -321 l 399 -321 q 375 -321 347 -314 q 319 -307 296 -293 q 272 -280 256 -261 q 240 -242 240 -218 l 240 -218 q 240 -187 250 -163 q 259 -139 275 -122 q 291 -106 313 -98 q 334 -90 357 -90 l 357 -90 q 388 -90 411 -101 q 434 -112 453 -128 q 471 -144 487 -163 q 502 -182 518 -198 q 533 -214 551 -225 q 569 -236 593 -236 l 593 -236 q 638 -236 663 -198 q 687 -161 687 -93 l 687 -93 q 687 38 591 107 q 495 175 310 175 l 310 175 q 160 175 81 130 q 2 85 0 -2 l 0 -2 l 0 -6 q 0 -60 25 -103 q 50 -146 81 -185 q 112 -225 138 -266 q 163 -308 163 -359 l 163 -359 q 163 -404 143 -439 q 123 -474 99 -506 q 75 -539 55 -573 q 35 -607 35 -650 l 35 -650 q 35 -727 107 -766 q 178 -806 317 -806","ha":696,"x_min":0,"x_max":687},"f":{"o":"m 40 -658 l 40 -658 q 40 -747 102 -787 q 164 -828 292 -828 l 292 -828 q 354 -828 404 -817 q 453 -806 488 -786 q 523 -767 542 -740 q 561 -714 561 -683 l 561 -683 q 561 -625 533 -591 q 504 -558 462 -558 l 462 -558 q 417 -558 388 -585 q 359 -613 359 -657 l 359 -657 q 359 -674 354 -692 q 349 -710 340 -724 q 330 -739 317 -748 q 304 -758 287 -758 l 287 -758 q 266 -758 249 -746 q 232 -734 220 -715 q 207 -697 200 -675 q 193 -653 193 -634 l 193 -634 q 193 -599 203 -569 q 213 -539 230 -517 q 246 -495 267 -482 q 287 -470 308 -470 l 308 -470 q 331 -470 348 -481 q 365 -492 380 -505 q 395 -518 409 -529 q 422 -540 437 -540 l 437 -540 q 482 -540 503 -521 q 524 -502 524 -472 l 524 -472 q 524 -453 518 -431 q 512 -409 501 -390 q 489 -371 473 -358 q 457 -345 437 -345 l 437 -345 q 426 -345 407 -351 q 388 -357 366 -364 q 344 -371 322 -377 q 300 -384 282 -385 q 264 -387 253 -381 q 241 -375 241 -357 l 241 -357 q 241 -323 256 -291 q 271 -260 289 -226 q 306 -192 321 -152 q 336 -112 336 -61 l 336 -61 q 336 -21 327 20 q 317 61 298 93 q 278 125 249 146 q 219 166 178 166 l 178 166 q 97 166 52 121 q 6 76 6 -2 l 6 -2 q 6 -39 16 -72 q 26 -106 41 -137 q 55 -169 73 -198 q 90 -228 105 -257 q 119 -287 129 -316 q 139 -346 139 -376 l 139 -376 q 139 -411 124 -446 q 108 -482 90 -518 q 71 -554 56 -589 q 40 -624 40 -658","ha":566,"x_min":6,"x_max":561},"g":{"o":"m 23 -318 l 23 -318 q 23 -432 48 -522 q 73 -612 120 -674 q 167 -736 235 -769 q 303 -802 390 -802 l 390 -802 q 441 -802 485 -791 q 528 -780 560 -761 q 592 -742 611 -715 q 629 -689 629 -659 l 629 -659 q 629 -638 620 -619 q 610 -600 594 -585 q 578 -571 557 -563 q 535 -555 510 -555 l 510 -555 q 476 -555 451 -569 q 425 -583 403 -600 q 380 -617 358 -631 q 336 -645 309 -645 l 309 -645 q 275 -645 243 -620 q 211 -596 186 -555 q 161 -515 146 -463 q 131 -411 131 -355 l 131 -355 q 131 -300 146 -254 q 161 -208 188 -175 q 215 -142 252 -123 q 289 -105 333 -105 l 333 -105 q 378 -105 423 -124 q 467 -143 502 -173 q 537 -204 559 -242 q 580 -281 580 -320 l 580 -320 q 580 -340 575 -358 q 569 -376 560 -389 q 551 -403 539 -411 q 527 -419 514 -419 l 514 -419 q 500 -419 488 -409 q 475 -400 464 -385 q 453 -371 441 -354 q 429 -337 416 -322 q 402 -308 385 -298 q 368 -289 347 -289 l 347 -289 q 312 -289 289 -315 q 266 -341 266 -383 l 266 -383 q 266 -446 320 -482 q 373 -518 466 -518 l 466 -518 q 534 -518 589 -497 q 643 -477 682 -439 q 720 -401 741 -347 q 762 -294 762 -227 l 762 -227 q 762 -145 732 -72 q 701 0 649 54 q 596 108 526 140 q 455 171 375 171 l 375 171 q 294 171 229 137 q 163 103 118 40 q 72 -24 48 -114 q 23 -205 23 -318","ha":773,"x_min":23,"x_max":762},"h":{"o":"m 456 -218 l 456 -218 q 456 -235 448 -251 q 439 -267 425 -279 q 410 -292 390 -300 q 370 -308 346 -308 l 346 -308 q 328 -308 308 -306 q 287 -305 270 -300 q 252 -295 241 -284 q 229 -274 229 -256 l 229 -256 q 229 -231 251 -200 q 272 -169 298 -137 q 323 -105 345 -74 q 366 -44 366 -18 l 366 -18 q 366 24 358 61 q 350 97 331 124 q 312 150 280 166 q 248 181 201 181 l 201 181 q 154 181 119 164 q 84 146 61 116 q 37 86 25 47 q 13 8 12 -35 l 12 -35 l 12 -43 q 12 -79 25 -114 q 37 -149 52 -185 q 67 -222 80 -260 q 92 -299 92 -341 l 92 -341 q 92 -380 82 -416 q 72 -453 60 -489 q 48 -526 38 -562 q 28 -599 28 -638 l 28 -638 q 28 -715 60 -747 q 91 -779 139 -779 l 139 -779 q 186 -779 205 -757 q 223 -736 226 -705 q 229 -674 224 -639 q 219 -604 219 -578 l 219 -578 q 219 -553 224 -520 q 228 -488 241 -459 q 253 -431 277 -411 q 300 -392 339 -392 l 339 -392 q 356 -392 373 -399 q 389 -406 402 -420 q 415 -435 424 -456 q 432 -477 432 -505 l 432 -505 q 432 -524 428 -543 q 424 -562 420 -581 q 415 -601 411 -620 q 407 -640 407 -661 l 407 -661 q 407 -688 413 -713 q 418 -738 431 -757 q 444 -776 465 -787 q 486 -799 517 -799 l 517 -799 q 557 -799 589 -785 q 620 -772 642 -748 q 663 -725 675 -694 q 686 -664 686 -629 l 686 -629 q 686 -604 674 -575 q 661 -547 647 -518 q 632 -489 620 -460 q 607 -432 607 -407 l 607 -407 q 607 -355 630 -309 q 652 -264 680 -220 q 707 -176 730 -131 q 752 -86 752 -35 l 752 -35 q 752 6 742 45 q 732 84 710 114 q 688 144 655 163 q 622 181 575 181 l 575 181 q 531 181 501 169 q 471 157 453 135 q 435 112 427 80 q 418 48 418 9 l 418 9 l 418 1 q 418 -27 424 -54 q 430 -82 437 -109 q 444 -136 450 -163 q 456 -190 456 -218","ha":764,"x_min":12,"x_max":752},"i":{"o":"m 197 -808 l 197 -808 q 268 -808 309 -777 q 349 -746 349 -692 l 349 -692 q 349 -658 335 -620 q 321 -583 304 -543 q 286 -503 272 -462 q 258 -421 258 -380 l 258 -380 q 258 -334 277 -292 q 295 -250 317 -205 q 339 -161 358 -110 q 376 -59 376 7 l 376 7 q 376 185 206 185 l 206 185 q 119 185 66 144 q 12 102 9 33 l 9 33 l 9 26 q 9 -7 23 -37 q 36 -68 57 -98 q 77 -128 101 -157 q 125 -186 146 -216 q 166 -247 180 -279 q 193 -311 193 -346 l 193 -346 q 193 -391 171 -428 q 149 -465 122 -502 q 95 -539 73 -579 q 51 -619 51 -669 l 51 -669 q 51 -808 197 -808","ha":421,"x_min":9,"x_max":376},"j":{"o":"m 349 -730 l 349 -730 q 374 -730 398 -736 q 421 -743 445 -750 q 469 -758 493 -764 q 517 -771 543 -771 l 543 -771 q 589 -771 614 -747 q 639 -724 639 -680 l 639 -680 q 639 -645 624 -624 q 609 -603 584 -603 l 584 -603 q 568 -603 552 -610 q 536 -618 521 -627 q 506 -637 493 -644 q 480 -652 472 -652 l 472 -652 q 456 -652 456 -636 l 456 -636 q 456 -627 466 -600 q 476 -573 490 -540 q 503 -507 517 -473 q 531 -440 539 -418 l 539 -418 q 559 -365 570 -301 q 581 -238 581 -178 l 581 -178 q 581 -100 562 -37 q 543 25 507 70 q 471 114 421 138 q 370 161 307 161 l 307 161 q 246 161 194 140 q 141 118 103 80 q 65 41 44 -11 q 22 -64 22 -126 l 22 -126 q 22 -176 36 -219 q 50 -262 74 -294 q 98 -326 131 -344 q 164 -362 202 -362 l 202 -362 q 247 -362 272 -337 q 296 -313 296 -268 l 296 -268 q 296 -238 287 -220 q 277 -203 266 -191 q 255 -179 246 -169 q 236 -159 236 -144 l 236 -144 q 236 -121 259 -106 q 282 -91 317 -91 l 317 -91 q 352 -91 382 -107 q 411 -124 433 -153 q 455 -182 467 -222 q 479 -262 479 -309 l 479 -309 q 479 -363 462 -425 l 462 -425 q 449 -472 427 -514 q 405 -556 379 -587 q 353 -618 325 -636 q 297 -654 271 -654 l 271 -654 q 247 -654 227 -639 q 206 -625 187 -607 q 167 -590 146 -575 q 125 -561 100 -561 l 100 -561 q 65 -561 44 -589 q 23 -617 23 -663 l 23 -663 q 23 -717 54 -747 q 84 -778 136 -778 l 136 -778 q 163 -778 190 -770 q 216 -763 243 -754 q 269 -745 296 -737 q 322 -730 349 -730","ha":662,"x_min":22,"x_max":639},"k":{"o":"m 41 -662 l 41 -662 q 41 -728 78 -764 q 114 -800 180 -800 l 180 -800 q 242 -800 277 -769 q 312 -739 312 -685 l 312 -685 q 312 -665 308 -646 q 304 -627 299 -609 q 293 -592 289 -575 q 285 -559 285 -542 l 285 -542 q 285 -513 306 -513 l 306 -513 q 327 -513 345 -532 q 363 -552 381 -581 q 398 -611 417 -645 q 436 -680 460 -709 q 483 -739 513 -758 q 542 -778 581 -778 l 581 -778 q 609 -778 633 -767 q 656 -757 674 -738 q 691 -719 701 -694 q 710 -669 710 -639 l 710 -639 q 710 -608 700 -579 q 689 -550 672 -527 q 655 -505 633 -491 q 610 -478 586 -478 l 586 -478 q 562 -478 546 -496 q 530 -515 519 -536 q 507 -558 498 -576 q 489 -595 478 -595 l 478 -595 q 467 -595 449 -575 q 431 -556 415 -529 q 398 -503 386 -475 q 374 -447 374 -430 l 374 -430 q 374 -403 401 -377 q 427 -351 467 -324 q 507 -297 553 -267 q 599 -238 639 -202 q 679 -166 706 -123 q 732 -80 732 -26 l 732 -26 q 732 11 720 44 q 707 77 685 102 q 663 127 634 142 q 605 156 573 156 l 573 156 q 509 156 471 102 q 432 47 430 -46 l 430 -46 l 430 -55 q 430 -104 421 -154 q 411 -204 396 -244 q 380 -285 362 -311 q 343 -337 325 -337 l 325 -337 q 315 -337 306 -329 q 297 -321 290 -307 q 283 -294 279 -276 q 275 -259 275 -240 l 275 -240 q 275 -202 290 -170 q 305 -138 323 -108 q 340 -78 355 -47 q 370 -16 370 20 l 370 20 q 370 53 356 82 q 342 111 317 133 q 292 154 259 167 q 226 179 188 179 l 188 179 q 150 179 115 167 q 80 154 54 133 q 27 112 12 85 q -4 57 -4 27 l -4 27 q -4 -2 10 -29 q 24 -57 45 -84 q 66 -111 90 -138 q 114 -166 135 -195 q 156 -224 170 -255 q 184 -286 184 -320 l 184 -320 q 184 -350 174 -376 q 163 -402 147 -428 q 131 -454 113 -479 q 94 -505 78 -533 q 62 -562 52 -593 q 41 -625 41 -662","ha":747,"x_min":-4,"x_max":732},"l":{"o":"m 8 -639 l 8 -639 q 8 -710 52 -751 q 96 -792 171 -792 l 171 -792 q 231 -792 257 -764 q 282 -736 282 -671 l 282 -671 q 282 -619 269 -558 q 255 -498 240 -434 q 224 -370 211 -305 q 197 -241 197 -181 l 197 -181 q 197 -95 227 -46 q 257 2 311 2 l 311 2 q 333 2 357 -6 q 380 -14 400 -26 q 419 -38 432 -53 q 445 -68 445 -82 l 445 -82 q 445 -95 435 -112 q 424 -129 411 -148 q 398 -168 388 -189 q 377 -211 377 -233 l 377 -233 q 377 -254 388 -273 q 399 -292 418 -307 q 437 -322 462 -330 q 487 -339 514 -339 l 514 -339 q 580 -339 616 -288 q 652 -238 652 -145 l 652 -145 q 652 8 551 87 q 450 166 255 166 l 255 166 q 128 166 73 128 q 18 90 18 2 l 18 2 q 18 -45 30 -87 q 42 -129 57 -168 q 72 -207 84 -245 q 96 -284 96 -324 l 96 -324 q 96 -366 83 -405 q 69 -444 53 -482 q 36 -520 22 -558 q 8 -597 8 -639","ha":681,"x_min":8,"x_max":652},"m":{"o":"m 146 -799 l 146 -799 q 185 -799 217 -778 q 249 -757 275 -723 q 300 -690 320 -648 q 339 -606 355 -563 q 370 -521 381 -483 q 392 -445 400 -419 l 400 -419 q 403 -411 407 -400 q 410 -390 414 -381 q 417 -372 421 -365 q 425 -359 428 -359 l 428 -359 q 431 -359 436 -366 q 440 -373 444 -382 q 448 -392 452 -402 q 456 -413 458 -419 l 458 -419 q 466 -440 477 -475 q 488 -510 504 -550 q 519 -591 538 -632 q 557 -674 579 -707 q 601 -741 627 -762 q 653 -784 682 -784 l 682 -784 q 716 -784 738 -755 q 760 -726 760 -680 l 760 -680 q 760 -651 752 -619 q 743 -588 733 -555 q 722 -523 714 -491 q 705 -459 705 -428 l 705 -428 q 705 -393 717 -365 q 729 -338 747 -314 q 765 -290 786 -266 q 806 -243 824 -216 q 842 -189 854 -155 q 866 -122 866 -77 l 866 -77 q 866 -31 853 7 q 839 45 815 73 q 790 100 757 116 q 723 131 683 131 l 683 131 q 621 131 588 95 q 555 58 553 -13 l 553 -13 l 553 -20 q 553 -77 570 -124 q 586 -172 607 -213 q 627 -254 644 -290 q 660 -327 660 -362 l 660 -362 q 660 -379 656 -396 q 651 -414 644 -428 q 637 -442 628 -450 q 618 -459 609 -459 l 609 -459 q 595 -459 582 -438 q 568 -417 555 -385 q 542 -353 529 -316 q 516 -279 503 -247 q 489 -215 475 -194 q 461 -173 446 -173 l 446 -173 q 432 -173 419 -190 q 405 -208 392 -234 q 378 -260 365 -290 q 352 -321 340 -347 q 328 -373 317 -390 q 306 -408 296 -408 l 296 -408 q 284 -408 276 -382 q 267 -357 267 -322 l 267 -322 q 267 -281 278 -242 q 288 -203 301 -162 q 313 -122 324 -78 q 334 -35 334 15 l 334 15 q 334 89 305 121 q 276 152 208 152 l 208 152 q 125 152 77 111 q 28 69 25 -4 l 25 -4 l 25 -11 q 25 -70 52 -118 q 78 -167 110 -210 q 142 -253 169 -294 q 195 -335 195 -379 l 195 -379 q 195 -421 171 -462 q 147 -504 119 -544 q 90 -585 66 -624 q 42 -664 42 -703 l 42 -703 q 42 -745 72 -772 q 101 -799 146 -799","ha":891,"x_min":25,"x_max":866},"n":{"o":"m 169 -778 l 169 -778 q 212 -778 237 -761 q 261 -744 273 -702 l 273 -702 q 277 -688 286 -660 q 295 -632 308 -597 q 321 -563 337 -526 q 352 -490 369 -460 q 386 -430 404 -411 q 421 -392 438 -392 l 438 -392 q 450 -392 467 -397 q 483 -403 498 -414 q 513 -426 524 -444 q 534 -463 534 -488 l 534 -488 q 534 -515 520 -542 q 505 -569 488 -596 q 471 -623 457 -649 q 442 -676 442 -703 l 442 -703 q 442 -763 476 -791 q 510 -820 568 -820 l 568 -820 q 589 -820 611 -811 q 633 -802 651 -786 q 668 -770 679 -750 q 690 -730 690 -707 l 690 -707 q 690 -638 682 -571 q 674 -504 674 -435 l 674 -435 q 674 -391 684 -349 q 694 -307 707 -265 q 719 -223 729 -181 q 739 -140 739 -96 l 739 -96 q 739 -53 730 -15 q 721 22 702 50 q 683 77 653 93 q 623 108 580 108 l 580 108 q 538 108 507 90 q 475 72 454 43 q 432 14 421 -23 q 410 -60 410 -98 l 410 -98 q 410 -126 402 -159 q 394 -192 381 -225 q 368 -259 352 -290 q 335 -322 318 -346 q 301 -371 285 -385 q 269 -400 257 -400 l 257 -400 q 248 -400 243 -394 q 238 -388 235 -380 q 232 -372 232 -363 q 231 -354 231 -348 l 231 -348 q 231 -320 248 -283 q 265 -247 285 -206 q 305 -166 322 -125 q 339 -84 339 -47 l 339 -47 q 339 -11 328 21 q 316 53 295 77 q 274 101 244 115 q 213 128 175 128 l 175 128 q 139 128 109 114 q 78 100 56 77 q 33 53 20 22 q 7 -10 7 -46 l 7 -46 q 7 -106 18 -164 q 29 -222 42 -279 q 54 -337 65 -395 q 76 -453 76 -512 l 76 -512 q 76 -557 67 -600 q 57 -643 57 -679 l 57 -679 q 57 -728 91 -753 q 124 -778 169 -778","ha":754,"x_min":7,"x_max":739},"o":{"o":"m 97 -330 l 97 -330 q 97 -363 86 -386 q 75 -409 62 -432 q 48 -455 37 -482 q 25 -509 25 -550 l 25 -550 q 25 -609 58 -658 q 90 -708 141 -744 q 192 -780 255 -800 q 317 -821 378 -821 l 378 -821 q 439 -821 496 -803 q 553 -785 598 -752 q 642 -719 669 -672 q 695 -625 695 -568 l 695 -568 q 695 -531 687 -501 q 679 -471 670 -445 q 660 -419 652 -395 q 644 -371 644 -345 l 644 -345 q 644 -317 654 -295 q 663 -274 674 -251 q 685 -228 695 -200 q 704 -172 704 -131 l 704 -131 q 704 -69 679 -17 q 654 34 609 71 q 563 108 500 129 q 437 149 361 149 l 361 149 q 290 149 233 131 q 175 113 135 80 q 94 46 73 -1 q 51 -49 51 -108 l 51 -108 q 51 -144 58 -173 q 65 -203 74 -229 q 83 -255 90 -279 q 97 -303 97 -330 m 337 -654 l 337 -654 q 301 -654 274 -632 q 247 -610 229 -572 q 210 -535 201 -486 q 191 -438 191 -384 l 191 -384 q 191 -303 204 -248 q 216 -194 238 -161 q 259 -128 288 -114 q 317 -101 350 -101 l 350 -101 q 382 -101 408 -122 q 433 -144 452 -181 q 471 -219 481 -269 q 491 -320 491 -378 l 491 -378 q 491 -454 477 -506 q 462 -559 440 -592 q 417 -625 390 -639 q 362 -654 337 -654","ha":725,"x_min":25,"x_max":704},"p":{"o":"m 43 -673 l 43 -673 q 43 -749 102 -788 q 161 -828 276 -828 l 276 -828 q 359 -828 425 -807 q 491 -787 537 -748 q 582 -710 607 -654 q 631 -599 631 -529 l 631 -529 q 631 -474 616 -428 q 601 -382 574 -349 q 546 -316 508 -297 q 470 -279 424 -279 l 424 -279 q 381 -279 346 -292 q 310 -305 285 -314 q 260 -324 247 -323 q 233 -322 233 -294 l 233 -294 q 233 -268 245 -244 q 256 -220 273 -197 q 290 -174 310 -151 q 330 -128 348 -103 q 365 -79 377 -51 q 389 -23 390 9 l 390 9 l 390 14 q 390 80 342 118 q 294 156 210 156 l 210 156 q 119 156 67 111 q 14 65 14 -13 l 14 -13 q 14 -63 34 -108 q 53 -153 76 -195 q 99 -237 119 -278 q 138 -319 138 -361 l 138 -361 q 138 -399 123 -436 q 108 -474 91 -513 q 73 -552 58 -591 q 43 -631 43 -673 m 335 -378 l 335 -378 q 352 -378 368 -391 q 384 -405 397 -427 q 410 -449 418 -477 q 426 -505 426 -533 l 426 -533 q 426 -564 417 -592 q 407 -621 391 -643 q 375 -665 354 -678 q 333 -692 311 -692 l 311 -692 q 278 -692 260 -662 q 242 -632 242 -575 l 242 -575 q 242 -537 250 -501 q 258 -466 271 -438 q 283 -411 300 -394 q 317 -378 335 -378","ha":642,"x_min":14,"x_max":631},"q":{"o":"m 411 -800 l 411 -800 q 483 -800 545 -766 q 606 -733 651 -674 q 696 -615 721 -533 q 746 -452 746 -356 l 746 -356 q 746 -295 737 -251 q 727 -207 713 -176 q 698 -146 681 -125 q 664 -105 650 -91 q 635 -78 626 -68 q 616 -58 616 -48 l 616 -48 q 616 -36 630 -20 q 644 -5 662 15 q 679 35 693 62 q 707 89 707 124 l 707 124 q 707 167 683 195 q 658 223 614 223 l 614 223 q 573 223 548 202 q 522 181 522 136 l 522 136 q 522 123 526 109 q 529 94 533 79 q 537 64 541 50 q 544 35 544 23 l 544 23 q 544 17 544 9 q 543 0 536 0 l 536 0 q 528 0 514 12 q 499 23 475 37 q 450 50 414 62 q 378 73 326 73 l 326 73 q 255 73 199 48 q 142 23 103 -24 q 64 -71 44 -138 q 23 -205 23 -290 l 23 -290 q 23 -360 39 -425 q 55 -490 84 -547 q 112 -604 150 -650 q 187 -697 231 -730 q 274 -763 320 -781 q 366 -800 411 -800 m 274 -349 l 274 -349 q 274 -131 412 -131 l 412 -131 q 487 -131 528 -193 q 569 -256 569 -371 l 569 -371 q 569 -433 558 -487 q 546 -542 526 -583 q 506 -624 480 -647 q 454 -671 424 -671 l 424 -671 q 393 -671 366 -645 q 339 -620 319 -576 q 298 -532 286 -473 q 274 -415 274 -349","ha":768,"x_min":23,"x_max":746},"r":{"o":"m 390 -348 l 390 -348 q 390 -337 416 -317 q 442 -298 481 -272 q 519 -247 565 -216 q 610 -186 649 -152 q 687 -118 713 -81 q 739 -44 739 -7 l 739 -7 q 739 23 722 52 q 704 81 675 104 q 646 126 609 140 q 572 154 533 154 l 533 154 q 505 154 481 147 q 456 139 438 126 q 420 112 410 95 q 399 77 399 56 l 399 56 q 399 33 411 18 q 422 2 436 -11 q 450 -25 462 -39 q 473 -54 473 -75 l 473 -75 q 473 -101 455 -134 q 437 -168 411 -199 q 385 -230 357 -251 q 328 -272 306 -272 l 306 -272 q 287 -272 274 -255 q 260 -239 260 -216 l 260 -216 q 260 -189 278 -165 q 296 -141 317 -115 q 338 -90 356 -62 q 374 -34 374 0 l 374 0 q 374 30 358 58 q 341 86 313 108 q 285 129 249 142 q 212 154 172 154 l 172 154 q 104 154 62 119 q 19 84 19 28 l 19 28 q 19 -2 31 -29 q 43 -57 62 -83 q 80 -110 101 -135 q 122 -161 141 -186 q 159 -212 171 -237 q 183 -262 183 -288 l 183 -288 q 183 -314 171 -338 q 159 -363 142 -387 q 124 -412 104 -437 q 83 -463 66 -490 q 48 -517 36 -547 q 24 -577 24 -610 l 24 -610 q 24 -654 45 -691 q 65 -729 101 -757 q 137 -786 186 -802 q 234 -818 289 -818 l 289 -818 q 354 -818 414 -796 q 473 -774 519 -736 q 564 -699 591 -650 q 618 -602 618 -549 l 618 -549 q 618 -506 601 -477 q 584 -448 559 -429 q 534 -410 504 -398 q 474 -387 449 -378 q 424 -370 407 -363 q 390 -357 390 -348 m 223 -531 l 223 -531 q 223 -507 232 -482 q 240 -457 254 -437 q 267 -417 283 -404 q 298 -391 313 -391 l 313 -391 q 331 -391 347 -400 q 362 -409 374 -425 q 385 -441 392 -461 q 399 -482 399 -506 l 399 -506 q 399 -530 392 -553 q 385 -576 374 -594 q 363 -613 350 -624 q 336 -636 322 -636 l 322 -636 q 308 -636 291 -630 q 273 -625 258 -612 q 243 -600 233 -580 q 223 -560 223 -531","ha":746,"x_min":19,"x_max":739},"s":{"o":"m 406 -820 l 406 -820 q 466 -820 516 -806 q 565 -793 601 -768 q 637 -744 657 -710 q 677 -677 677 -637 l 677 -637 q 677 -587 647 -559 q 616 -532 560 -532 l 560 -532 q 516 -532 492 -549 q 468 -566 468 -598 l 468 -598 q 468 -635 440 -662 q 412 -689 368 -689 l 368 -689 q 346 -689 320 -678 q 294 -668 272 -652 q 249 -636 234 -617 q 218 -598 218 -580 l 218 -580 q 218 -558 241 -539 q 264 -521 302 -502 q 340 -484 389 -464 q 437 -445 487 -422 q 537 -400 586 -372 q 634 -344 672 -308 q 710 -273 733 -228 q 756 -183 756 -127 l 756 -127 q 756 -66 728 -14 q 700 38 650 76 q 600 113 532 134 q 464 155 383 155 l 383 155 q 302 155 233 134 q 163 112 113 74 q 63 35 35 -18 q 6 -71 6 -134 l 6 -134 q 6 -211 48 -256 q 89 -302 160 -302 l 160 -302 q 211 -302 239 -278 q 266 -254 266 -211 l 266 -211 q 266 -185 283 -163 q 300 -142 324 -127 q 348 -112 374 -104 q 400 -96 417 -96 l 417 -96 q 434 -96 453 -100 q 471 -105 487 -113 q 503 -121 513 -132 q 523 -144 523 -159 l 523 -159 q 523 -183 504 -204 q 484 -226 453 -246 q 421 -267 381 -288 q 341 -309 299 -331 q 256 -354 216 -379 q 176 -405 145 -435 q 113 -466 94 -502 q 74 -538 74 -582 l 74 -582 q 74 -632 100 -675 q 125 -719 170 -751 q 215 -783 276 -801 q 336 -820 406 -820","ha":770,"x_min":6,"x_max":756},"t":{"o":"m 358 -800 l 358 -800 q 389 -800 430 -799 q 471 -799 514 -795 q 556 -791 596 -782 q 635 -774 663 -758 l 663 -758 q 695 -739 708 -716 q 720 -694 720 -656 l 720 -656 q 720 -639 717 -622 q 714 -605 706 -591 q 698 -578 685 -569 q 671 -561 650 -561 l 650 -561 q 625 -561 606 -573 q 586 -585 570 -599 q 554 -613 539 -625 q 524 -637 507 -637 l 507 -637 q 484 -637 466 -619 q 448 -602 435 -577 q 422 -552 416 -525 q 409 -498 409 -480 l 409 -480 q 409 -430 433 -377 q 457 -325 486 -269 q 515 -214 539 -155 q 563 -96 563 -32 l 563 -32 q 563 55 514 95 q 464 134 381 134 l 381 134 q 337 134 295 122 q 253 110 221 86 q 188 61 168 25 q 148 -12 148 -61 l 148 -61 q 148 -100 162 -138 q 176 -176 197 -216 q 218 -257 243 -300 q 267 -344 288 -392 q 309 -441 323 -496 q 337 -551 337 -615 l 337 -615 q 337 -624 335 -635 q 333 -646 329 -655 q 324 -665 317 -671 q 309 -678 297 -678 l 297 -678 q 274 -678 257 -656 q 239 -635 221 -609 q 202 -584 179 -562 q 155 -541 120 -541 l 120 -541 q 97 -541 78 -551 q 58 -561 44 -577 q 29 -594 21 -615 q 12 -636 12 -658 l 12 -658 q 12 -693 31 -717 q 50 -741 81 -757 q 111 -773 149 -781 q 187 -790 226 -794 q 264 -798 299 -799 q 334 -800 358 -800","ha":727,"x_min":12,"x_max":720},"u":{"o":"m 664 -402 l 664 -402 q 664 -373 674 -345 q 683 -318 694 -287 q 705 -257 715 -220 q 724 -183 724 -135 l 724 -135 q 724 -72 700 -22 q 676 27 633 62 q 590 97 530 116 q 470 134 399 134 l 399 134 q 51 134 51 -124 l 51 -124 q 51 -159 56 -191 q 61 -224 68 -254 q 74 -285 79 -313 q 84 -342 84 -369 l 84 -369 q 84 -405 75 -438 q 65 -472 54 -505 q 43 -538 34 -571 q 24 -605 24 -642 l 24 -642 q 24 -681 36 -713 q 48 -746 70 -769 q 92 -793 122 -805 q 152 -818 189 -818 l 189 -818 q 255 -818 293 -778 q 331 -739 331 -671 l 331 -671 q 331 -620 311 -583 q 291 -546 267 -512 q 242 -478 222 -440 q 202 -403 202 -351 l 202 -351 q 202 -314 214 -279 q 225 -244 245 -218 q 264 -192 290 -177 q 316 -163 345 -166 l 345 -166 q 380 -169 408 -186 q 435 -203 455 -229 q 474 -256 484 -291 q 494 -327 494 -368 l 494 -368 q 494 -407 485 -441 q 475 -475 464 -507 q 452 -540 443 -572 q 433 -604 433 -639 l 433 -639 q 433 -703 469 -740 q 505 -778 566 -778 l 566 -778 q 599 -778 627 -766 q 655 -755 675 -734 q 695 -714 706 -685 q 717 -657 717 -622 l 717 -622 q 717 -590 709 -562 q 700 -534 691 -507 q 681 -481 673 -455 q 664 -429 664 -402","ha":749,"x_min":24,"x_max":724},"v":{"o":"m 4 -666 l 4 -666 q 4 -697 14 -723 q 24 -749 42 -767 q 59 -785 84 -795 q 109 -805 139 -805 l 139 -805 q 172 -805 199 -792 q 226 -780 246 -757 q 265 -735 276 -704 q 286 -673 286 -635 l 286 -635 q 286 -608 282 -583 q 277 -558 271 -533 q 265 -508 261 -481 q 256 -454 256 -423 l 256 -423 q 256 -376 268 -329 q 280 -283 299 -245 q 318 -208 342 -185 q 366 -162 390 -162 l 390 -162 q 410 -162 428 -177 q 445 -193 459 -219 q 473 -246 481 -280 q 489 -315 489 -353 l 489 -353 q 489 -380 486 -406 q 482 -432 478 -459 q 473 -486 470 -513 q 466 -541 466 -571 l 466 -571 q 466 -624 480 -667 q 493 -710 519 -741 q 544 -772 580 -788 q 615 -805 658 -805 l 658 -805 q 724 -805 759 -767 q 794 -729 794 -658 l 794 -658 q 794 -615 782 -587 q 770 -560 753 -538 q 735 -517 715 -496 q 694 -476 677 -447 q 659 -419 647 -377 q 635 -336 635 -272 l 635 -272 q 635 -186 613 -108 q 590 -30 552 29 q 514 88 464 123 q 413 157 357 157 l 357 157 q 315 157 279 137 q 243 116 217 80 q 191 44 177 -6 q 162 -56 162 -115 l 162 -115 q 162 -144 165 -165 q 168 -186 172 -205 q 175 -224 178 -241 q 181 -259 181 -280 l 181 -280 q 181 -322 168 -357 q 155 -392 135 -422 q 115 -453 93 -480 q 70 -508 50 -537 q 30 -566 17 -597 q 4 -629 4 -666","ha":804,"x_min":4,"x_max":794},"w":{"o":"m 150 -787 l 150 -787 q 215 -787 252 -757 q 288 -727 288 -673 l 288 -673 q 288 -645 279 -617 q 270 -589 260 -557 q 249 -526 240 -490 q 231 -454 231 -410 l 231 -410 q 231 -406 232 -384 q 233 -362 239 -337 q 244 -312 257 -292 q 269 -272 291 -272 l 291 -272 q 318 -272 332 -301 q 345 -331 353 -376 q 361 -421 366 -472 q 371 -524 380 -569 q 389 -614 406 -643 q 423 -673 454 -673 l 454 -673 q 481 -673 501 -650 q 520 -628 535 -590 q 550 -553 561 -505 q 571 -458 580 -408 q 588 -359 596 -311 q 603 -264 611 -226 q 619 -189 628 -166 q 637 -144 650 -144 l 650 -144 q 664 -144 680 -171 q 696 -199 710 -241 q 723 -283 732 -332 q 740 -382 740 -426 l 740 -426 q 740 -477 729 -516 q 718 -556 706 -589 q 693 -623 682 -653 q 671 -683 671 -715 l 671 -715 q 671 -821 803 -821 l 803 -821 q 876 -821 921 -790 q 966 -759 966 -708 l 966 -708 q 966 -675 948 -640 q 930 -606 908 -569 q 886 -533 868 -494 q 850 -455 850 -413 l 850 -413 q 850 -381 861 -347 q 871 -314 884 -279 q 897 -244 908 -207 q 918 -171 918 -133 l 918 -133 q 918 -85 900 -40 q 881 5 851 40 q 821 74 782 95 q 742 115 700 115 l 700 115 q 663 115 629 99 q 594 82 569 54 q 543 26 528 -11 q 512 -48 512 -89 l 512 -89 q 512 -125 521 -154 q 529 -184 529 -206 l 529 -206 q 529 -221 524 -236 q 518 -252 509 -264 q 500 -277 490 -285 q 479 -294 468 -294 l 468 -294 q 456 -294 443 -282 q 430 -271 419 -253 q 407 -236 400 -215 q 393 -194 393 -175 l 393 -175 q 393 -155 401 -137 q 408 -119 418 -102 q 427 -85 435 -67 q 443 -49 444 -29 l 444 -29 l 444 -25 q 444 5 427 33 q 410 60 382 81 q 353 102 316 115 q 278 127 238 127 l 238 127 q 193 127 154 111 q 114 94 85 66 q 55 37 39 -1 q 22 -39 22 -83 l 22 -83 q 22 -125 36 -163 q 50 -202 67 -238 q 83 -275 97 -310 q 111 -346 111 -383 l 111 -383 q 111 -423 95 -457 q 79 -491 60 -524 q 40 -557 24 -591 q 7 -625 7 -665 l 7 -665 q 7 -722 45 -754 q 83 -787 150 -787","ha":965,"x_min":7,"x_max":966},"x":{"o":"m 374 -208 l 374 -208 q 358 -208 345 -197 q 331 -187 321 -172 q 311 -157 306 -139 q 300 -122 300 -108 l 300 -108 q 300 -95 303 -83 q 305 -71 308 -59 l 308 -59 l 315 -35 q 323 -11 323 10 l 323 10 l 324 14 q 324 37 311 53 q 298 69 279 79 q 259 89 237 94 q 214 99 195 99 l 195 99 q 166 99 135 90 q 104 80 79 62 q 53 44 37 18 q 20 -8 19 -40 l 19 -40 l 19 -43 q 19 -78 39 -109 q 59 -140 89 -169 q 119 -199 155 -227 q 190 -255 220 -282 q 250 -309 270 -336 q 290 -364 290 -392 l 290 -392 q 290 -419 272 -439 q 253 -459 226 -476 q 199 -494 167 -511 q 134 -528 107 -547 q 80 -566 62 -589 q 43 -613 43 -645 l 43 -645 q 43 -671 55 -694 q 67 -718 87 -737 q 106 -756 131 -767 q 156 -778 181 -778 l 181 -778 q 214 -778 237 -760 q 260 -742 277 -715 q 293 -688 306 -656 q 318 -625 331 -598 q 344 -571 359 -553 q 374 -535 395 -535 l 395 -535 q 427 -535 445 -553 q 463 -572 475 -600 q 486 -629 495 -661 q 503 -694 516 -722 q 528 -751 548 -769 q 568 -788 602 -788 l 602 -788 q 625 -788 644 -779 q 662 -771 676 -756 q 690 -741 698 -721 q 705 -701 705 -679 l 705 -679 q 705 -647 691 -624 q 676 -602 654 -583 q 632 -564 607 -547 q 582 -530 560 -509 q 538 -488 524 -460 q 509 -433 509 -394 l 509 -394 q 509 -364 527 -339 q 544 -315 570 -291 q 596 -268 626 -245 q 656 -222 682 -193 q 708 -165 726 -130 q 743 -96 743 -51 l 743 -51 q 743 -14 731 15 q 718 43 697 63 q 675 82 645 92 q 615 102 579 102 l 579 102 q 553 102 525 96 q 497 89 474 76 q 451 62 436 40 q 420 18 419 -12 l 419 -12 l 419 -15 q 419 -30 423 -44 q 427 -58 432 -72 q 436 -87 440 -101 q 444 -115 444 -130 l 444 -130 q 444 -142 438 -156 q 432 -170 422 -181 q 412 -193 400 -200 q 387 -208 374 -208","ha":756,"x_min":19,"x_max":743},"y":{"o":"m 292 -546 l 292 -546 q 318 -546 331 -564 q 344 -583 351 -611 q 358 -640 364 -672 q 369 -705 379 -733 q 389 -762 407 -780 q 424 -799 457 -799 l 457 -799 q 481 -799 502 -789 q 522 -779 538 -762 q 553 -746 562 -724 q 571 -703 571 -680 l 571 -680 q 571 -646 555 -615 q 538 -585 513 -556 q 488 -527 460 -498 q 431 -470 406 -440 q 381 -410 365 -378 q 348 -347 348 -312 l 348 -312 q 348 -286 357 -263 q 366 -240 380 -218 q 394 -197 410 -176 q 426 -155 440 -133 q 454 -112 464 -88 q 473 -65 474 -38 l 474 -38 l 474 -34 q 474 1 460 25 q 445 49 422 64 q 399 79 370 86 q 341 93 311 93 l 311 93 q 283 93 254 87 q 224 80 200 66 q 175 52 159 30 q 143 7 142 -26 l 142 -26 l 142 -29 q 142 -66 160 -103 q 178 -140 200 -176 q 221 -212 239 -247 q 257 -283 257 -316 l 257 -316 q 257 -359 239 -392 q 220 -426 192 -453 q 163 -481 131 -504 q 98 -528 70 -551 q 41 -575 23 -600 q 4 -626 4 -656 l 4 -656 q 4 -680 17 -704 q 29 -729 49 -748 q 68 -767 93 -779 q 118 -791 142 -791 l 142 -791 q 172 -791 188 -773 q 204 -755 212 -727 q 220 -700 225 -668 q 229 -637 236 -609 q 242 -582 255 -564 q 267 -546 292 -546","ha":586,"x_min":4,"x_max":571},"z":{"o":"m 319 85 l 319 85 q 258 85 203 69 q 148 52 107 25 q 65 -3 41 -40 q 16 -77 16 -118 l 16 -118 q 16 -163 44 -203 q 72 -243 114 -280 q 155 -317 204 -351 q 252 -386 294 -418 q 335 -451 363 -482 q 391 -514 391 -545 l 391 -545 q 391 -560 385 -574 q 378 -588 368 -599 q 357 -610 344 -616 q 330 -623 316 -623 l 316 -623 q 297 -623 282 -611 q 266 -600 252 -583 q 238 -566 225 -546 q 211 -526 195 -509 q 179 -492 160 -480 q 140 -469 114 -469 l 114 -469 q 77 -469 56 -492 q 35 -516 35 -558 l 35 -558 q 35 -606 64 -649 q 93 -693 142 -726 q 190 -759 254 -779 q 318 -799 388 -799 l 388 -799 q 440 -799 485 -788 q 530 -777 563 -757 q 596 -737 615 -710 q 633 -684 633 -652 l 633 -652 q 633 -612 605 -577 q 576 -542 533 -510 q 490 -478 440 -448 q 390 -418 347 -388 q 304 -358 276 -327 q 247 -296 247 -262 l 247 -262 q 247 -242 257 -222 q 267 -202 284 -186 q 300 -171 320 -161 q 340 -151 361 -151 l 361 -151 q 382 -151 402 -161 q 421 -172 436 -190 q 450 -209 459 -233 q 467 -257 467 -284 l 467 -284 q 467 -329 491 -352 q 515 -375 560 -375 l 560 -375 q 622 -375 659 -333 q 696 -292 696 -223 l 696 -223 q 696 -161 666 -105 q 635 -49 584 -7 q 532 35 464 60 q 395 85 319 85","ha":706,"x_min":16,"x_max":696},".":{"o":"m 209 -246 l 209 -246 q 238 -246 262 -219 q 285 -193 302 -155 q 319 -118 329 -77 q 338 -36 338 -8 l 338 -8 q 338 28 326 50 q 314 72 294 85 q 273 98 246 103 q 218 107 187 107 l 187 107 q 159 107 135 103 q 110 98 91 87 q 72 75 61 55 q 49 35 48 5 l 48 5 l 48 -2 q 48 -35 63 -77 q 77 -120 100 -157 q 123 -195 152 -220 q 180 -246 209 -246","ha":452,"x_min":48,"x_max":338},",":{"o":"m 209 -247 l 209 -247 q 245 -247 276 -233 q 307 -219 330 -193 q 352 -168 365 -134 q 378 -100 379 -59 l 379 -59 l 379 -52 q 380 -11 365 26 q 349 63 322 91 q 294 119 258 135 q 221 151 180 151 l 180 151 q 153 151 130 144 q 107 137 90 125 q 72 112 63 96 q 53 79 53 59 l 53 59 q 53 29 74 7 q 94 -15 122 -15 l 122 -15 q 137 -15 149 -9 q 161 -3 172 5 q 183 12 195 18 q 207 24 222 24 l 222 24 q 242 24 260 13 q 277 1 290 -18 q 303 -38 311 -63 q 319 -89 319 -117 l 319 -117 q 319 -153 305 -153 l 305 -153 q 296 -153 278 -142 q 260 -131 238 -117 q 215 -104 190 -93 q 165 -82 142 -82 l 142 -82 q 113 -82 94 -100 q 74 -119 74 -147 l 74 -147 q 74 -167 85 -185 q 96 -204 115 -217 q 133 -231 158 -239 q 182 -247 209 -247","ha":461,"x_min":53,"x_max":380},"!":{"o":"m 78 -410 l 78 -410 q 78 -439 84 -483 q 90 -527 100 -576 q 110 -625 124 -674 q 138 -724 155 -763 q 172 -803 190 -828 q 208 -853 227 -853 l 227 -853 q 246 -853 264 -831 q 281 -809 297 -774 q 313 -740 327 -696 q 340 -653 350 -610 q 359 -568 365 -531 q 370 -494 370 -471 l 370 -471 q 370 -435 371 -395 q 371 -356 368 -318 q 364 -281 354 -247 q 344 -213 324 -187 q 304 -162 272 -147 q 239 -132 189 -132 l 189 -132 q 159 -132 139 -146 q 118 -161 106 -185 q 94 -209 88 -239 q 82 -269 80 -300 q 78 -331 78 -360 q 78 -389 78 -410 m 54 43 l 54 43 q 54 8 72 -19 q 90 -46 117 -64 q 143 -83 173 -92 q 202 -102 226 -102 l 226 -102 q 250 -102 275 -91 q 299 -81 320 -63 q 340 -45 353 -21 q 366 2 366 29 l 366 29 q 366 67 356 90 q 345 113 325 126 q 305 138 276 143 q 247 147 209 147 l 209 147 q 179 147 151 143 q 123 138 102 126 q 80 114 67 94 q 54 74 54 43","ha":460,"x_min":54,"x_max":371},"?":{"o":"m 374 -662 l 374 -662 q 374 -678 367 -695 q 359 -712 348 -725 q 337 -739 323 -747 q 309 -756 295 -756 l 295 -756 q 280 -756 266 -745 q 251 -735 240 -718 q 228 -701 221 -679 q 214 -658 214 -636 l 214 -636 q 214 -617 207 -598 q 200 -580 187 -565 q 173 -550 155 -540 q 136 -531 113 -531 l 113 -531 q 88 -531 70 -541 q 51 -552 39 -568 q 27 -585 21 -606 q 15 -627 15 -647 l 15 -647 q 15 -683 37 -717 q 58 -751 93 -777 q 128 -803 174 -819 q 220 -835 268 -835 l 268 -835 q 315 -835 356 -819 q 396 -803 426 -775 q 456 -748 473 -710 q 490 -672 490 -627 l 490 -627 q 490 -576 475 -543 q 459 -510 440 -486 q 421 -462 406 -443 q 390 -424 390 -401 l 390 -401 q 390 -390 395 -378 q 399 -366 405 -353 q 410 -340 415 -327 q 419 -314 419 -300 l 419 -300 q 419 -278 406 -257 q 392 -236 370 -220 q 348 -205 319 -195 q 290 -186 258 -186 l 258 -186 q 227 -186 201 -195 q 175 -205 156 -222 q 137 -240 127 -264 q 117 -289 117 -319 l 117 -319 q 117 -363 136 -398 q 155 -433 184 -462 q 212 -491 246 -515 q 279 -540 308 -563 q 336 -586 355 -610 q 374 -634 374 -662 m 113 20 l 113 20 q 113 -16 129 -47 q 144 -79 166 -102 q 188 -125 212 -138 q 236 -152 253 -152 l 253 -152 q 271 -152 297 -141 q 323 -130 347 -110 q 371 -90 389 -62 q 406 -34 406 0 l 406 0 q 406 38 395 62 q 383 85 363 98 q 343 111 316 116 q 288 120 256 120 l 256 120 q 225 120 199 117 q 172 114 153 104 q 134 93 124 74 q 113 54 113 20","ha":520,"x_min":15,"x_max":490},"-":{"o":"m 37 -415 l 37 -415 q 37 -460 58 -487 q 78 -515 111 -515 l 111 -515 q 126 -515 140 -510 q 154 -505 167 -499 q 180 -494 192 -489 q 203 -484 213 -484 l 213 -484 q 225 -484 238 -492 q 251 -500 266 -509 q 281 -518 299 -526 q 316 -534 336 -534 l 336 -534 q 377 -534 400 -499 q 422 -465 422 -405 l 422 -405 q 422 -360 408 -339 q 394 -319 363 -319 l 363 -319 q 345 -319 327 -324 q 309 -330 293 -336 q 276 -342 260 -347 q 244 -353 229 -353 l 229 -353 q 210 -353 198 -344 q 186 -336 176 -325 q 166 -315 154 -306 q 142 -298 123 -298 l 123 -298 q 105 -298 90 -307 q 74 -316 62 -332 q 50 -348 44 -369 q 37 -390 37 -415","ha":465,"x_min":37,"x_max":422},":":{"o":"m 224 -705 l 224 -705 q 253 -705 275 -689 q 296 -674 311 -649 q 325 -625 332 -595 q 339 -566 339 -537 l 339 -537 q 339 -467 303 -438 q 267 -410 205 -410 l 205 -410 q 147 -410 116 -441 q 84 -472 84 -537 l 84 -537 q 84 -570 95 -600 q 106 -631 125 -654 q 144 -678 170 -691 q 195 -705 224 -705 m 209 -246 l 209 -246 q 238 -246 262 -219 q 285 -193 302 -155 q 319 -118 329 -77 q 338 -36 338 -8 l 338 -8 q 338 28 326 50 q 314 72 294 85 q 273 98 246 103 q 218 107 187 107 l 187 107 q 159 107 135 103 q 110 98 91 87 q 72 75 61 55 q 49 35 48 5 l 48 5 l 48 -2 q 48 -35 63 -77 q 77 -120 100 -157 q 123 -195 152 -220 q 180 -246 209 -246","ha":395,"x_min":48,"x_max":339},";":{"o":"m 224 -705 l 224 -705 q 253 -705 275 -689 q 296 -674 311 -649 q 325 -625 332 -595 q 339 -566 339 -537 l 339 -537 q 339 -467 303 -438 q 267 -410 205 -410 l 205 -410 q 147 -410 116 -441 q 84 -472 84 -537 l 84 -537 q 84 -570 95 -600 q 106 -631 125 -654 q 144 -678 170 -691 q 195 -705 224 -705 m 201 -247 l 201 -247 q 237 -247 268 -233 q 299 -219 322 -193 q 344 -168 357 -134 q 370 -100 371 -59 l 371 -59 l 371 -52 q 372 -11 357 26 q 341 63 314 91 q 286 119 250 135 q 213 151 172 151 l 172 151 q 145 151 122 144 q 99 137 82 125 q 64 112 55 96 q 45 79 45 59 l 45 59 q 45 29 66 7 q 86 -15 114 -15 l 114 -15 q 129 -15 141 -9 q 153 -3 164 5 q 175 12 187 18 q 199 24 214 24 l 214 24 q 234 24 252 13 q 269 1 282 -18 q 295 -38 303 -63 q 311 -89 311 -117 l 311 -117 q 311 -153 297 -153 l 297 -153 q 288 -153 270 -142 q 252 -131 230 -117 q 207 -104 182 -93 q 157 -82 134 -82 l 134 -82 q 105 -82 86 -100 q 66 -119 66 -147 l 66 -147 q 66 -167 77 -185 q 88 -204 107 -217 q 125 -231 150 -239 q 174 -247 201 -247","ha":410,"x_min":45,"x_max":372},"'":{"o":"m 156 -505 l 156 -505 q 114 -505 91 -521 q 67 -537 55 -562 q 43 -588 41 -619 q 38 -650 38 -680 l 38 -680 q 38 -707 48 -737 q 58 -768 75 -793 q 91 -818 112 -834 q 133 -851 156 -851 l 156 -851 q 179 -851 199 -833 q 219 -816 234 -790 q 248 -764 257 -734 q 265 -704 265 -679 l 265 -679 q 265 -657 264 -627 q 262 -597 253 -570 q 243 -543 221 -524 q 198 -505 156 -505","ha":297,"x_min":38,"x_max":265},"\"":{"o":"m 399 -522 l 399 -522 q 357 -522 333 -537 q 308 -552 296 -576 q 284 -600 281 -630 q 277 -660 277 -690 l 277 -690 q 277 -717 285 -748 q 293 -780 309 -806 q 324 -833 347 -850 q 369 -868 399 -868 l 399 -868 q 429 -868 449 -855 q 469 -843 482 -823 q 495 -803 501 -778 q 506 -753 506 -728 l 506 -728 q 506 -713 506 -692 q 506 -671 504 -648 q 501 -625 495 -602 q 488 -580 477 -562 q 465 -544 446 -533 q 427 -522 399 -522 m 156 -505 l 156 -505 q 113 -505 89 -522 q 64 -539 52 -566 q 39 -593 36 -625 q 32 -657 32 -687 l 32 -687 q 32 -714 43 -743 q 54 -772 72 -796 q 89 -820 111 -835 q 133 -851 156 -851 l 156 -851 q 179 -851 199 -833 q 218 -816 233 -790 q 247 -764 256 -734 q 264 -704 264 -679 l 264 -679 q 264 -657 263 -627 q 261 -597 252 -570 q 242 -543 220 -524 q 198 -505 156 -505","ha":560,"x_min":32,"x_max":506},"(":{"o":"m 400 -733 l 400 -733 q 400 -720 394 -714 q 388 -709 379 -707 q 370 -706 358 -707 q 346 -709 334 -709 l 334 -709 q 302 -709 281 -694 q 259 -680 246 -656 q 233 -633 227 -604 q 220 -576 218 -548 q 215 -521 215 -497 q 215 -474 215 -461 l 215 -461 q 215 -405 228 -367 q 240 -329 259 -301 q 277 -273 299 -252 q 320 -231 339 -210 q 357 -189 370 -164 q 382 -139 382 -103 l 382 -103 q 382 -46 349 -15 q 315 16 253 16 l 253 16 q 198 16 153 -8 q 108 -33 76 -78 q 44 -123 27 -186 q 9 -250 9 -328 l 9 -328 q 9 -421 34 -505 q 58 -590 100 -654 q 141 -718 196 -756 q 251 -794 312 -794 l 312 -794 q 353 -794 377 -777 q 400 -761 400 -733","ha":424,"x_min":9,"x_max":400},")":{"o":"m 29 -78 l 29 -78 q 29 -118 43 -151 q 56 -184 76 -214 q 96 -245 119 -275 q 142 -306 162 -342 q 182 -378 196 -422 q 209 -467 209 -525 l 209 -525 q 209 -545 206 -577 q 203 -610 196 -641 q 188 -672 176 -695 q 163 -718 144 -718 l 144 -718 q 131 -718 119 -715 q 107 -713 94 -713 l 94 -713 q 65 -713 65 -741 l 65 -741 q 65 -758 74 -768 q 82 -779 95 -784 q 107 -790 123 -792 q 138 -794 151 -794 l 151 -794 q 224 -794 274 -761 q 323 -728 353 -676 q 383 -624 396 -560 q 408 -497 408 -436 l 408 -436 q 408 -396 401 -345 q 394 -294 380 -242 q 365 -190 343 -140 q 320 -90 289 -51 q 257 -12 217 12 q 177 35 127 35 l 127 35 q 74 35 52 3 q 29 -29 29 -78","ha":427,"x_min":29,"x_max":408}}}
